<?xml version="1.0" standalone="no"?>
<!DOCTYPE svg PUBLIC "-//W3C//DTD SVG 1.1//EN" "http://www.w3.org/Graphics/SVG/1.1/DTD/svg11.dtd" >
<!--
2013-9-30: Created.
-->
<svg>
<metadata>
Created by iconfont
</metadata>
<defs>

<font id="iconfont" horiz-adv-x="1024" >
  <font-face
    font-family="iconfont"
    font-weight="500"
    font-stretch="normal"
    units-per-em="1024"
    ascent="896"
    descent="-128"
  />
    <missing-glyph />
    
    <glyph glyph-name="anzhiguihua" unicode="&#58928;" d="M442.538667 320.651636h138.720969v-170.728727h-138.720969zM777.433212 396.412121l-268.644848 114.812121-265.309091-116.068848v-245.21697h131.61503V357.965576a30.130424 30.130424 0 0 0 11.465697 23.707151 31.030303 31.030303 0 0 0 19.378424 6.500849H618.589091a30.223515 30.223515 0 0 0 30.192485-30.208v-208.027152H780.412121V395.186424zM514.730667 868.072727c-267.760485 0-484.848485-217.072485-484.848485-484.848485a484.848485 484.848485 0 0 1 969.69697 0c0 267.776-217.072485 484.848485-484.848485 484.848485zM847.90303 112.624485a30.130424 30.130424 0 0 0-11.465697-23.707152 31.030303 31.030303 0 0 0-19.393939-6.500848H206.103273a30.192485 30.192485 0 0 0-30.192485 30.208V410.934303a30.083879 30.083879 0 0 0 26.112 30.301091l272.570182 125.083151V724.216242a33.776485 33.776485 0 0 0 36.89503 33.605819c17.501091-1.551515 30.611394-16.818424 30.611394-34.397091v-3.413334l123.578182-29.385697c15.965091-3.816727 25.724121-20.867879 22.264242-38.46206a31.635394 31.635394 0 0 0-22.093576-31.030303l-1.132606-0.310303-122.569697-28.501334v-25.724121l279.567516-125.346909a30.208 30.208 0 0 0 26.189575-29.944242z"  horiz-adv-x="1024" />

    
    <glyph glyph-name="canyushixiang" unicode="&#58929;" d="M578.715152 679.299879V847.90303H205.312A65.675636 65.675636 0 0 1 139.636364 782.227394v-791.800242A65.675636 65.675636 0 0 1 205.312-75.24848499999996h614.927515A65.675636 65.675636 0 0 1 885.915152-9.572848000000022V567.078788H690.936242A112.360727 112.360727 0 0 0 578.715152 679.299879z m9.30909-560.09697A31.821576 31.821576 0 0 0 557.769697 96.969697h-257.551515a31.806061 31.806061 0 0 0 0 63.612121h257.551515a31.821576 31.821576 0 0 0 30.254545-41.44097z m0 166.012121A31.821576 31.821576 0 0 0 557.769697 262.981818h-257.551515a31.806061 31.806061 0 0 0 0 63.612121h257.551515a31.821576 31.821576 0 0 0 30.254545-41.440969zM758.690909 460.8a31.806061 31.806061 0 0 0-31.806061-31.806061h-426.666666a31.806061 31.806061 0 0 0 0 63.612122h426.666666a31.806061 31.806061 0 0 0 31.806061-31.806061zM690.936242 613.624242H885.915152L625.260606 847.90303v-168.603151A65.675636 65.675636 0 0 1 690.936242 613.624242z"  horiz-adv-x="1024" />

    
    <glyph glyph-name="fenxijisuan" unicode="&#58930;" d="M947.975758-79.90303H125.315879a87.536485 87.536485 0 0 0-87.458909 87.458909V808.494545a39.346424 39.346424 0 1 0 78.677333 0v-800.938666a8.797091 8.797091 0 0 1 8.781576-8.766061H947.975758a39.330909 39.330909 0 1 0 0-78.692848zM213.02303 238.436848a39.330909 39.330909 0 0 0-27.291151 67.646061l234.821818 226.210909a39.346424 39.346424 0 0 0 55.109818-0.496485L606.642424 400.942545l226.738424 221.649455a39.330909 39.330909 0 1 0 55.001213-56.242424l-254.603637-248.832a39.361939 39.361939 0 0 0-55.32703 0.310303l-131.149576 131.056485-207.003151-199.431758a39.144727 39.144727 0 0 0-27.275637-11.015758z m0 0M855.272727 402.447515L642.792727 189.781333a24.482909 24.482909 0 0 0-33.124848 0.186182l-134.500849 127.488a24.498424 24.498424 0 0 1-33.016242 0.279273L252.89697 144.787394a22.202182 22.202182 0 0 1 16.384-38.4h603.539394a22.946909 22.946909 0 0 1 23.552 22.419394l-1.024 257.768727c-0.093091 19.719758-25.150061 29.66497-40.029091 15.872z m0 0"  horiz-adv-x="1024" />

    
    <glyph glyph-name="baogaoguanli" unicode="&#58931;" d="M805.034667 43.054545V706.094545c-0.651636 14.972121-3.258182 39.718788-18.88194 55.358061-11.077818 11.062303-27.353212 16.275394-48.857212 16.275394-44.280242 0-66.435879-33.202424-66.435879-98.986667v-121.793939a28.206545 28.206545 0 0 0-27.927272-28.020364H128.325818V73.69697c0-76.194909 48.841697-138.084848 125.052121-138.084849h13.032728l577.05503 0.651637c-24.09503 24.110545-38.43103 61.238303-38.43103 106.821818z m-156.966788 113.260607H285.944242a33.217939 33.217939 0 0 0 0 66.435878h362.123637a33.217939 33.217939 0 1 0 0-66.435878z m0 177.152H285.944242a33.217939 33.217939 0 1 0 0 66.435878h362.123637a33.217939 33.217939 0 1 0 0-66.435878zM861.090909 43.054545c0-24.824242 6.516364-83.362909 65.163636-83.362909 24.09503 0 39.082667 9.75903 48.857213 22.140122a107.597576 107.597576 0 0 1 14.242909 34.459151v1.303273c0 1.303273 0.651636 3.258182 0.651636 4.545939 0.651636 6.516364 1.303273 12.412121 1.303273 16.290909V203.279515a18.494061 18.494061 0 0 1-18.88194 18.88194H861.090909z m0 0M51.463758 584.300606h564.037818v93.789091c0 91.182545 40.339394 147.843879 109.428363 153.693091a106.077091 106.077091 0 0 1-20.169697 1.954909H133.538909C78.180848 833.737697 32.581818 792.048485 32.581818 740.600242v-141.979151c0-6.516364 7.757576-14.320485 18.88194-14.320485z m0 0"  horiz-adv-x="1024" />

    
    <glyph glyph-name="quanxianguanli" unicode="&#58933;" d="M467.688727 613.624242c66.885818 0 228.181333 4.220121 320.046546 42.232243v-82.044121a35.095273 35.095273 0 0 1 34.893575-34.210909h0.403394a35.29697 35.29697 0 0 1 33.404122 34.133333v154.282667a59.609212 59.609212 0 0 1-15.173819 40.339393A20.278303 20.278303 0 0 1 839.369697 770.172121c-28.734061 31.961212-95.666424 54.30303-198.966303 66.218667a1533.750303 1533.750303 0 0 1-172.637091 9.309091c-73.681455 0-146.369939-4.778667-204.660364-13.451637C144.290909 814.483394 82.556121 781.187879 79.732364 733.090909c-0.418909-1.070545-0.775758-2.094545-1.070546-3.10303l-0.263757-0.96194v-630.101333c0-41.673697 43.706182-72.921212 129.939394-92.997818 71.292121-16.570182 154.670545-21.504 198.019878-22.962424h0.372364a35.079758 35.079758 0 0 1 24.824242 58.957575 35.684848 35.684848 0 0 1-24.669091 11.326061C241.586424 59.640242 159.806061 89.382788 147.099152 99.141818v136.316121c45.707636-18.788848 114.470788-31.77503 204.675878-38.617212l7.757576-0.589575v4.406303a35.436606 35.436606 0 0 1-5.182061 66.218666l-0.682666 0.201697h-0.729212c-139.093333 10.581333-197.042424 37.453576-204.8 43.52-0.279273 0.775758-0.574061 1.551515-0.899879 2.311758V446.991515c65.598061-27.710061 168.432485-38.88097 245.139394-43.442424h0.946424a34.893576 34.893576 0 0 1 32.193939 37.065697 34.304 34.304 0 0 1-33.574787 36.507151C218.918788 485.608727 152.374303 518.345697 147.393939 523.962182c-0.093091 0.124121-0.186182 0.232727-0.263757 0.356848v131.878788C238.933333 617.921939 400.616727 613.624242 467.688727 613.624242z m0 160.519758c173.552485 0 275.952485-27.539394 308.456728-44.528485-32.380121-16.818424-134.593939-44.032-308.456728-44.032-157.804606 0-269.467152 24.079515-307.2 43.256243 38.337939 20.076606 150.621091 45.350788 307.2 45.350787zM870.601697 280.343273V335.747879a147.006061 147.006061 0 1 1-293.360485 0v-55.327031a85.891879 85.891879 0 0 1-74.472727-82.587151V6.981818a85.333333 85.333333 0 0 1 85.907394-85.333333h270.475636a85.891879 85.891879 0 0 1 85.907394 82.726788v190.836363a86.543515 86.543515 0 0 1-74.457212 85.131637z m-107.799273-176.562425v-62.820848a39.610182 39.610182 0 0 0-37.236363-40.339394 40.339394 40.339394 0 0 0-40.339394 40.339394v58.84897a55.854545 55.854545 0 1 0 77.575757 3.971878z m40.339394 231.967031v-54.551273H640.868848V335.747879a81.454545 81.454545 0 1 0 162.27297 0z"  horiz-adv-x="1024" />

    
    <glyph glyph-name="daibanshixiang" unicode="&#58934;" d="M501.139394 126.448485a242.160485 242.160485 0 0 0 322.715151 228.243394V782.227394A65.675636 65.675636 0 0 1 758.178909 847.90303H143.251394A65.675636 65.675636 0 0 1 77.575758 782.227394v-791.800242A65.675636 65.675636 0 0 1 143.251394-75.248485h466.106182A241.788121 241.788121 0 0 0 501.139394 126.448485zM239.802182 658.199273h426.775273a31.604364 31.604364 0 1 0 0-63.193212H239.802182a31.604364 31.604364 0 1 0 0 63.193212z m0-166.012121h257.954909a31.604364 31.604364 0 0 0 0-63.193213H239.802182a31.604364 31.604364 0 1 0 0 63.193213z m0-229.205334a31.604364 31.604364 0 1 0 0 63.193212h257.954909a31.604364 31.604364 0 0 0 0-63.193212zM743.951515 326.593939A200.921212 200.921212 0 1 1 944.872727 125.672727 200.921212 200.921212 0 0 1 743.951515 326.593939zM876.606061 75.248485h-144.290909a32.581818 32.581818 0 0 0-32.581819 32.581818v144.290909a32.581818 32.581818 0 0 0 65.163637 0v-111.709091h111.709091a32.581818 32.581818 0 0 0 0-65.163636z"  horiz-adv-x="1024" />

    
    <glyph glyph-name="anzhiquguihua" unicode="&#58935;" d="M453.042424 250.243879c2.59103-3.10303 6.718061-3.956364 14.149818-3.956364h0.372364c9.076364 0 12.25697 2.094545 13.963636 4.297697 1.551515 1.830788 148.945455 184.630303 199.199031 277.612606 18.168242 33.667879 25.56897 63.612121 25.568969 103.113697 0 130.901333-107.240727 237.381818-239.13503 237.381818S228.072727 762.926545 228.072727 632.86303a242.951758 242.951758 0 0 1 23.272728-102.4c42.123636-90.779152 200.145455-278.341818 201.696969-280.219151zM467.161212 723.781818a91.973818 91.973818 0 1 0-91.989333-92.004848A92.12897 92.12897 0 0 0 467.161212 723.781818zM988.718545 106.713212a23.179636 23.179636 0 0 1-0.418909 2.777212V486.4l-92.485818 44.016485A84.635152 84.635152 0 1 1 873.130667 481.745455l61.377939-29.230546v-125.533091l-218.049939 103.842909a26.887758 26.887758 0 1 1-23.133091-48.515879l241.18303-114.812121v-120.35103l-228.662303 108.916364L387.568485 133.275152 87.614061 245.418667v122.461091l175.041939-65.44291a26.903273 26.903273 0 0 1 18.726788 50.439758L87.614061 425.316848V552.96l41.223757-15.515152 0.44994-0.155151a26.903273 26.903273 0 0 1 18.804363 50.377697l-114.23806 42.821818v-585.821091L387.878788-87.660606l315.748848 121.762909L988.315152-101.515636v200.610909a26.375758 26.375758 0 0 1 0.403393 7.617939z m-901.104484-24.824242v106.092606l296.091151-110.716121 4.142546-1.551516 315.748848 121.79394 230.912-109.955879v-103.951515l-228.693333 108.916363L387.537455-30.254545zM811.752727 570.755879a30.875152 30.875152 0 0 0 30.844121-30.844121 30.145939 30.145939 0 0 0-1.411878-9.200485 27.632485 27.632485 0 0 1-3.289212-7.10594 30.828606 30.828606 0 1 0-26.143031 47.150546z"  horiz-adv-x="1024" />

    
    <glyph glyph-name="ziliaoguanli" unicode="&#58936;" d="M733.587394 655.096242H475.632485a31.604364 31.604364 0 1 1 0-63.193212h257.954909a31.604364 31.604364 0 0 1 0 63.193212zM951.078788 209.159758V-16.290909H72.921212V209.159758h280.638061a175.833212 175.833212 0 0 1 316.865939 0H951.078788M926.797576 844.8H285.478788v-168.789333H104.96v-404.790303H10.860606V-78.351515h1002.278788V271.220364h-86.341818V844.8z m-581.352728-573.579636V792.513939h521.309091v-521.309091H624.857212a113.741576 113.741576 0 0 0-225.714424 0z m-180.441212 0v352.504242H285.478788v-352.504242zM733.587394 489.084121H475.632485a31.604364 31.604364 0 1 1 0-63.193212h257.954909a31.604364 31.604364 0 0 1 0 63.193212z"  horiz-adv-x="1024" />

    
    <glyph glyph-name="tiaochashuju" unicode="&#58937;" d="M971.248485 795.958303H51.944727A28.811636 28.811636 0 0 1 23.272727 767.224242v-626.470787a28.811636 28.811636 0 0 1 28.718546-28.718546h353.047272l228.072728 0.449939 338.075151-0.449939a28.811636 28.811636 0 0 1 28.734061 28.718546V767.224242A28.811636 28.811636 0 0 1 971.248485 795.958303zM113.260606 496.283152a29.184 29.184 0 0 0-29.261576 25.910303 28.811636 28.811636 0 0 0 28.547879 31.542303h200.424727a29.15297 29.15297 0 0 0 29.246061-25.894788 28.796121 28.796121 0 0 0-28.578909-31.557818z m-3.568485-99.731394a28.718545 28.718545 0 1 0 31.495758 31.495757 28.796121 28.796121 0 0 0-31.542303-31.495757z m117.806546-130.079031H113.260606a29.184 29.184 0 0 0-29.261576 25.910303 28.811636 28.811636 0 0 0 28.594425 31.542303h114.23806a29.168485 29.168485 0 0 0 29.168485-25.894788 28.796121 28.796121 0 0 0-28.547879-31.557818z m83.099151 129.675637h-95.573333c-17.516606 0-31.852606 12.924121-31.852606 28.718545s14.336 28.734061 31.852606 28.734061h95.526788c17.532121 0 31.852606-12.924121 31.852606-28.734061s-14.320485-28.718545-31.852606-28.718545z m613.794909 72.533333L778.860606 282.158545a34.428121 34.428121 0 0 0-24.917333-12.970666 33.838545 33.838545 0 0 0-25.584485 10.860606l-145.159758 159.80606-145.144242-159.80606a33.233455 33.233455 0 0 0-49.08994 0 38.787879 38.787879 0 0 0 0 50.827636L558.654061 517.430303a33.900606 33.900606 0 0 0 24.544969 10.860606 32.690424 32.690424 0 0 0 24.54497-10.860606l143.406545-157.789091 121.297455 155.67903a34.33503 34.33503 0 0 0 26.298182 12.970667 32.162909 32.162909 0 0 0 22.434909-9.122909c13.684364-12.970667 15.437576-35.746909 3.165091-50.486303zM942.467879 697.406061a28.734061 28.734061 0 0 0-28.734061-28.734061H109.397333A28.734061 28.734061 0 0 0 80.678788 697.406061a28.718545 28.718545 0 0 0 28.718545 28.718545h804.336485A28.734061 28.734061 0 0 0 942.467879 697.406061zM957.284848 47.321212H65.163636a41.890909 41.890909 0 0 1 0-83.781818h892.121212a41.890909 41.890909 0 0 1 0 83.781818z"  horiz-adv-x="1024" />

    
    <glyph glyph-name="jinduguanli" unicode="&#58938;" d="M505.793939 854.109091C244.441212 854.109091 32.581818 642.249697 32.581818 380.89697s211.859394-473.212121 473.212121-473.212122 473.212121 211.874909 473.212122 473.212122S767.131152 854.109091 505.793939 854.109091z m0-857.693091C293.453576-3.584 121.297455 168.556606 121.297455 380.89697S293.453576 765.393455 505.793939 765.393455V380.89697h384.48097c0-212.340364-172.140606-384.48097-384.48097-384.48097z m0 0"  horiz-adv-x="1024" />

    
    <glyph glyph-name="tiaochaneirong" unicode="&#58940;" d="M969.402182 849.764848a32.240485 32.240485 0 0 0 33.652363-32.690424c0-17.749333-13.715394-31.387152-31.138909-32.581818l-2.513454-0.077576-31.557818-0.124121v-553.425454c0-34.971152-33.24897-63.441455-68.142546-65.163637l-3.273697-0.093091H669.742545L750.933333-34.148848a28.811636 28.811636 0 0 0-10.860606-41.44097l-2.280727-1.024a39.827394 39.827394 0 0 0-47.678061 9.045333l-1.892848 2.327273-90.686061 217.212121a27.772121 27.772121 0 0 0-4.12703 10.736485l-0.294788 2.885818H426.930424a26.561939 26.561939 0 0 0-2.978909-11.093333l-1.458424-2.52897-90.670546-217.212121a39.858424 39.858424 0 0 0-46.871272-12.629333l-2.715152 1.256727a28.765091 28.765091 0 0 0-14.568727 40.153212l1.334303 2.249697 81.221818 199.788606H157.633939c-35.002182 0-66.637576 27.477333-68.499394 62.060606l-0.09309 3.258182V784.290909l-34.335031 0.124121a32.705939 32.705939 0 0 0-2.420363 65.163637l2.420363 0.186181z m-113.260606-65.272242H153.987879v-522.395151a32.581818 32.581818 0 0 1 29.928727-32.659394l2.404849-0.093091h637.44a32.581818 32.581818 0 0 1 32.256 30.301091v2.451394z m-564.19297-310.30303c13.963636 0 25.367273-8.176485 25.367273-18.230303v-159.402667c0-10.053818-11.372606-18.230303-25.367273-18.230303h-14.568727c-13.963636 0-25.367273 8.16097-25.367273 18.230303V456.036848c0 10.053818 11.372606 18.230303 25.367273 18.230304z m440.80097 196.002909c13.963636 0 25.382788-9.712485 25.382788-21.628121v-348.60994c0-11.915636-11.388121-21.628121-25.382788-21.628121h-14.568728c-13.963636 0-25.367273 9.712485-25.367272 21.628121V648.564364c0 11.915636 11.388121 21.628121 25.367272 21.628121zM504.242424 719.127273c13.963636 0 25.367273-8.285091 25.367273-18.463031v-403.890424c0-10.162424-11.372606-18.447515-25.367273-18.447515h-14.584242c-13.963636 0-25.351758 8.285091-25.351758 18.447515V700.726303c0 10.177939 11.372606 18.46303 25.351758 18.46303z m0 0"  horiz-adv-x="1024" />

    
    <glyph glyph-name="faqishixiang" unicode="&#58941;" d="M820.239515 847.90303H205.312A65.675636 65.675636 0 0 1 139.636364 782.227394v-791.800242A65.675636 65.675636 0 0 1 205.312-75.248485h614.927515A65.675636 65.675636 0 0 1 885.915152-9.572848V782.227394A65.675636 65.675636 0 0 1 820.239515 847.90303z m7.493818-410.484363l-6.981818-27.446303-102.027636-436.782546c-2.342788-7.835152-15.685818-7.059394-15.685818-7.059394h-7.043879c-8.626424 0-23.536485 8.626424-23.536485 8.626424l-82.338909 61.160728c-13.327515 13.34303-19.595636 1.551515-19.595636 1.551515l-32.938667-49.400243c-10.193455-15.685818-21.953939-14.118788-21.95394-14.118787h-10.193454c-15.685818-0.791273-15.685818 15.685818-15.685818 15.685818l1.551515 105.859879 180.379151 184.304484c6.206061 9.417697-5.492364 6.206061-5.492363 6.206061L497.601939 127.674182c-15.685818-15.685818-31.371636 0-31.371636 0s-51.758545 38.415515-76.8 59.593697c-7.664485 6.469818-10.643394 13.156848-11.077818 19.331879v3.304727c0.853333 12.412121 11.077818 22.062545 11.077818 22.062545L812.823273 450.715152c18.044121 0 14.910061-13.296485 14.91006-13.296485zM300.218182 658.618182h426.666666a31.806061 31.806061 0 0 0 0-63.612121h-426.666666a31.806061 31.806061 0 0 0 0 63.612121zM268.412121 460.8a31.806061 31.806061 0 0 0 31.806061 31.806061h257.551515a31.806061 31.806061 0 1 0 0-63.612122h-257.551515a31.806061 31.806061 0 0 0-31.806061 31.806061z"  horiz-adv-x="1024" />

    
    <glyph glyph-name="gongshiguanli" unicode="&#58942;" d="M696.195879 182.116848l-85.038546 85.038546A24.048485 24.048485 0 1 1 577.163636 233.146182L679.206788 131.10303a23.955394 23.955394 0 0 1 33.993697 0L883.277576 301.164606a24.048485 24.048485 0 1 1-34.009212 34.009212zM273.935515 574.479515a120.32 120.32 0 0 1 117.915152-96.193939h240.484848a120.32 120.32 0 0 1 117.915152 96.193939h194.715151a48.09697 48.09697 0 0 0 48.09697-48.09697v-529.066666a48.09697 48.09697 0 0 0-48.09697-48.09697H79.127273a48.09697 48.09697 0 0 0-48.09697 48.09697v529.066666a48.09697 48.09697 0 0 0 48.09697 48.09697z m-122.569697-192.387879a24.064 24.064 0 0 1 0-48.096969h192.387879a24.064 24.064 0 0 1 0 48.096969z m0-120.257939a24.048485 24.048485 0 1 1 0-48.09697h240.484849a24.048485 24.048485 0 0 1 0 48.09697z m0-120.257939a24.048485 24.048485 0 1 1 0-48.09697h288.581818a24.048485 24.048485 0 1 1 0 48.09697z m0 0M608.193939 721.113212a96.193939 96.193939 0 0 0 0-192.387879H415.806061a96.193939 96.193939 0 1 0 0 192.387879 96.193939 96.193939 0 1 0 192.387878 0z m-96.193939-48.09697a48.09697 48.09697 0 1 1-48.09697 48.09697 48.09697 48.09697 0 0 1 48.09697-48.09697z m0 0"  horiz-adv-x="1024" />

    
    <glyph glyph-name="dingeshezhi" unicode="&#58943;" d="M825.918061 742.989576H253.703758a32.28703 32.28703 0 0 1-24.265697-10.984728 33.605818 33.605818 0 0 1-7.959273-26.515393v-0.44994a31.030303 31.030303 0 0 1 30.301091-27.260121h574.060606a37.236364 37.236364 0 0 0 37.236363-37.236364V11.636364a37.236364 37.236364 0 0 0-37.236363-37.236364H197.042424a37.313939 37.313939 0 0 0-37.236363 37.236364V587.512242a147.93697 147.93697 0 0 1 83.781818-26.17406h512.465454a32.581818 32.581818 0 0 1 0 65.163636H246.985697c-45.831758 0-84.014545 34.304-86.884849 78.087758a83.161212 83.161212 0 0 0 22.43491 62.991515 84.169697 84.169697 0 0 0 61.207272 26.624h512.310303a32.581818 32.581818 0 0 1 0 65.163636H243.68097A149.209212 149.209212 0 0 1 94.642424 710.392242V11.636364a102.586182 102.586182 0 0 1 102.4-102.4h628.875637a102.586182 102.586182 0 0 1 102.4 102.4V640.512a102.586182 102.586182 0 0 1-102.4 102.477576zM243.712 267.884606H353.745455v-232.897939h-110.033455zM454.935273 384.325818h108.745697v-349.339151h-108.745697zM665.6 500.782545h108.606061v-465.795878h-108.606061z"  horiz-adv-x="1024" />

    
    <glyph glyph-name="zuzhirenyuan" unicode="&#58944;" d="M165.158788 556.218182h1.396364a41.890909 41.890909 0 0 1 41.890909 41.890909v131.971879H816.09697v-132.06497a41.890909 41.890909 0 0 1 41.890909-41.890909h1.396363a41.890909 41.890909 0 0 1 41.89091 41.890909v148.169697a69.042424 69.042424 0 0 1-69.042425 68.964848H192.294788a69.042424 69.042424 0 0 1-68.980364-68.964848v-148.169697A41.890909 41.890909 0 0 1 165.158788 556.218182zM939.349333 146.40097a226.521212 226.521212 0 0 1-57.219878 46.08c3.599515 3.025455 7.090424 6.206061 10.426181 9.557333a161.233455 161.233455 0 1 1-228.072727 0c3.320242-3.335758 6.811152-6.516364 10.426182-9.557333a226.024727 226.024727 0 0 1-57.219879-46.08C576.558545 100.646788 553.890909 40.168727 553.890909-23.877818c0-4.12703 0.108606-8.440242 0.310303-12.815515l0.527515-11.077819h65.163637l-0.698182 12.303516c-0.232727 4.049455-0.341333 7.835152-0.341334 11.589818 0 98.505697 71.633455 178.672485 159.697455 178.688s159.650909-80.182303 159.650909-178.688c0-3.739152-0.108606-7.633455-0.341333-11.589818l-0.713697-12.303516h65.241212l0.512 11.077819c0.217212 4.359758 0.310303 8.67297 0.310303 12.815515 0 64.046545-22.652121 124.524606-63.860364 170.278788zM778.550303 412.253091a96.193939 96.193939 0 0 0 0-192.387879 96.193939 96.193939 0 0 0 0 192.387879zM349.959758 192.325818c3.599515 3.10303 7.090424 6.206061 10.426181 9.557334a161.233455 161.233455 0 1 1-228.072727 0c3.320242-3.320242 6.811152-6.516364 10.426182-9.557334a225.962667 225.962667 0 0 1-57.219879-46.064485C44.388848 100.491636 21.721212 40.013576 21.721212-24.048485c0-4.111515 0.108606-8.424727 0.310303-12.815515l0.527515-11.077818h65.163637l-0.698182 12.303515c-0.232727 4.049455-0.341333 7.835152-0.341333 11.589818 0 98.521212 71.633455 178.672485 159.697454 178.703515S406.031515 74.488242 406.031515-24.048485c0-3.770182-0.108606-7.571394-0.341333-11.589818l-0.698182-12.303515h65.163636l0.527516 11.093333c0.217212 4.375273 0.310303 8.688485 0.310303 12.8 0 64.046545-22.683152 124.524606-63.860364 170.294303a226.164364 226.164364 0 0 1-57.173333 46.08zM246.380606 412.113455a96.193939 96.193939 0 0 0 0-192.387879 96.193939 96.193939 0 0 0 0 192.387879z"  horiz-adv-x="1024" />

    
    <glyph glyph-name="xitongshezhi" unicode="&#58945;" d="M1010.812121 320.915394v69.554424l-49.741576 9.309091a204.272485 204.272485 0 0 1-25.987878 62.060606l26.717091 45.443879-48.469334 49.648485-44.233697-29.820121a201.960727 201.960727 0 0 1-59.314424 24.576l-13.451636 50.23806h-69.259637l-9.216-49.648485a202.658909 202.658909 0 0 1-65.287757-27.446303l-43.985455 26.08097-49.477818-48.67103L588.288 458.472727a203.713939 203.713939 0 0 1-24.358788-60.431515l-49.648485-13.37406v-69.554425l49.896728-9.309091a203.589818 203.589818 0 0 1 25.786181-62.060606l-26.65503-45.350788 48.469333-49.648484 43.845819 29.571878a201.69697 201.69697 0 0 1 59.872969-24.963878l13.265455-49.648485h69.275151l9.060849 48.950303a202.038303 202.038303 0 0 1 66.11006 27.803151l43.302788-25.677575 49.493334 48.67103L937.115152 246.566788a203.620848 203.620848 0 0 1 24.513939 61.098667z m-248.118303-72.471273a103.951515 103.951515 0 1 0 103.594667 103.951515 103.951515 103.951515 0 0 0-103.594667-103.951515zM187.485091 127.348364h246.81503a38.167273 38.167273 0 0 1 38.182788 38.167272 38.167273 38.167273 0 0 1-38.182788 38.167273H90.748121V759.916606h488.913455c1.179152 0 2.342788 0 3.490909 0.170667v-0.170667H893.672727v-97.093818a38.012121 38.012121 0 0 1 38.012121-38.027636 38.027636 38.027636 0 0 1 38.012122 38.027636V769.086061a67.056485 67.056485 0 0 1-66.916849 67.180606h-319.612121v-0.170667c-1.148121 0.108606-2.311758 0.170667-3.490909 0.170667h-498.036364A67.056485 67.056485 0 0 1 14.708364 769.086061v-574.557091a67.04097 67.04097 0 0 1 66.916848-67.180606h105.859879zM800.581818-13.482667H636.617697a29.602909 29.602909 0 0 1 1.551515 9.417697v66.715152a29.199515 29.199515 0 0 1-29.15297 29.261576h-233.658181a29.199515 29.199515 0 0 1-29.15297-29.261576v-66.715152a29.602909 29.602909 0 0 1 1.551515-9.417697H183.823515c-13.622303 0-24.669091-11.962182-24.669091-26.717091s11.046788-26.717091 24.669091-26.71709H800.581818c13.622303 0 24.669091 11.962182 24.669091 26.71709s-11.062303 26.717091-24.669091 26.717091z"  horiz-adv-x="1024" />

    
    <glyph glyph-name="xiaoshengongzuo" unicode="&#58946;" d="M726.109091 623.507394a31.604364 31.604364 0 0 1-31.604364 31.588848H267.729455a31.604364 31.604364 0 0 1-31.604364-31.588848A31.604364 31.604364 0 0 1 267.729455 591.90303h426.775272A31.604364 31.604364 0 0 1 726.109091 623.507394zM525.684364 489.084121H267.729455a31.604364 31.604364 0 0 1-31.604364-31.588848A31.604364 31.604364 0 0 1 267.729455 425.890909h257.954909a31.588848 31.588848 0 0 1 31.588848 31.604364 31.588848 31.588848 0 0 1-31.588848 31.588848zM525.684364 323.072H267.729455a31.604364 31.604364 0 0 1-31.604364-31.588848A31.604364 31.604364 0 0 1 267.729455 259.878788h257.954909a31.588848 31.588848 0 0 1 31.588848 31.604364 31.588848 31.588848 0 0 1-31.588848 31.588848zM668.377212 257.256727c0-41.285818 22.605576-78.041212 54.954667-96.674909 10.969212-6.749091 14.537697-14.739394 14.537697-27.291151 0-15.732364-13.761939-31.232-25.879273-31.232h-77.079273c-26.608485 0-49.291636-14.925576-49.291636-41.813334v-12.675878a43.147636 43.147636 0 0 1 43.147636-43.147637h301.412849a43.147636 43.147636 0 0 1 43.147636 42.759758c-0.387879 34.210909-21.581576 54.877091-48.19006 54.877091H848.058182c-12.815515 0-25.879273 15.515152-25.879273 31.232 0 12.629333 4.12703 21.147152 14.925576 27.523878 36.848485 20.805818 54.551273 55.296 54.566788 96.411152 0 46.343758-26.14303 88.715636-69.151031 104.866909-79.344485 29.851152-154.14303-28.687515-154.14303-104.835879zM585.619394-28.70303h387.149576v-49.772606H585.619394zM167.563636 782.739394h622.157576v-356.848485h62.060606V844.8H105.50303v-923.151515h401.842425v62.060606H167.563636V782.739394z"  horiz-adv-x="1024" />

    
    <glyph glyph-name="linshi" unicode="&#58898;" d="M864.333576 736.116364H158.564848a44.125091 44.125091 0 0 1-44.140606-44.016485v-439.885576a44.078545 44.078545 0 0 1 44.140606-44.016485h705.768728a44.125091 44.125091 0 0 1 44.140606 44.016485V692.099879a44.202667 44.202667 0 0 1-44.140606 44.016485m-705.784243 87.955394h705.753212q54.784 0 93.571879-38.679273t38.787879-93.277091v-439.901091q0-54.628848-38.787879-93.308121T864.302545 120.242424h-308.751515v-87.986424h132.344243a44.016485 44.016485 0 1 0 0-88.03297H334.987636a44.016485 44.016485 0 1 0 0 88.03297h132.344243V120.242424h-308.751515q-54.799515 0-93.571879 38.663758t-38.787879 93.308121V692.099879q0 54.659879 38.787879 93.292606t93.571879 38.679273"  horiz-adv-x="1024" />

    
    <glyph glyph-name="out" unicode="&#58899;" d="M511.394909 362.278788c15.872 0 28.827152 5.259636 39.579152 16.042667a52.006788 52.006788 0 0 1 16.089212 38.570666V811.706182a53.72897 53.72897 0 0 1-16.166788 39.160242 52.487758 52.487758 0 0 1-39.501576 16.461576c-15.049697 0-27.632485-5.383758-38.462061-16.461576a53.853091 53.853091 0 0 1-16.104727-39.160242v-394.78303A54.75297 54.75297 0 0 1 511.394909 362.278788zM952.832 462.615273a440.304485 440.304485 0 0 1-38.524121 100.848485A483.917576 483.917576 0 0 1 853.333333 652.412121a455.586909 455.586909 0 0 1-81.113212 73.495273 54.504727 54.504727 0 0 1-41.813333 9.107394 52.627394 52.627394 0 0 1-35.498667-21.98497 54.613333 54.613333 0 0 1-9.138424-41.813333 51.805091 51.805091 0 0 1 22.946909-35.483152A335.90303 335.90303 0 0 0 817.152 512.775758a340.992 340.992 0 0 0 38.632727-158.254546 331.915636 331.915636 0 0 0-27.399757-133.678545 348.097939 348.097939 0 0 0-183.280485-183.23394 340.154182 340.154182 0 0 0-267.357091 0A353.745455 353.745455 0 0 0 268.412121 111.569455a345.165576 345.165576 0 0 0-73.433212 109.397333A336.92703 336.92703 0 0 0 168.106667 354.521212a342.652121 342.652121 0 0 0 35.964121 154.468849c23.831273 47.693576 58.631758 88.436364 103.439515 121.250909a54.30303 54.30303 0 0 1 21.721212 36.584727 51.2 51.2 0 0 1-10.395151 40.587636 54.442667 54.442667 0 0 1-36.165819 21.829819c-14.785939 2.327273-28.253091-1.101576-41.208242-10.457213a495.786667 495.786667 0 0 1-77.172364-73.122909 436.984242 436.984242 0 0 1-57.716363-87.164121A474.236121 474.236121 0 0 1 70.516364 460.024242a444.38497 444.38497 0 0 1-12.598303-105.50303c0-62.727758 11.931152-122.274909 35.452121-176.996848A454.981818 454.981818 0 0 1 190.836364 33.450667a472.948364 472.948364 0 0 1 144.709818-97.466182A437.806545 437.806545 0 0 1 511.394909-100.072727c62.696727 0 122.228364 12.117333 176.950303 35.995151A465.454545 465.454545 0 0 1 832.54303 33.357576c40.680727 40.634182 73.495273 89.150061 97.512728 144.290909 23.862303 54.830545 35.979636 114.362182 35.979636 176.872727a451.180606 451.180606 0 0 1-13.203394 108.094061z"  horiz-adv-x="1024" />

    
    <glyph glyph-name="user1" unicode="&#58900;" d="M511.627636 868.072727c-267.760485 0-484.848485-217.072485-484.848484-484.848485a484.848485 484.848485 0 0 1 969.696969 0c0 267.776-217.072485 484.848485-484.848485 484.848485z m154.282667-850.137212a395.884606 395.884606 0 0 0-378.678303 38.446546A287.123394 287.123394 0 0 0 742.989576 61.284848a393.898667 393.898667 0 0 0-77.079273-43.349333zM359.346424 409.320727c0 81.066667 66.52897 147.021576 148.293818 147.021576s148.309333-65.954909 148.309334-147.021576-66.52897-147.006061-148.309334-147.00606-148.293818 65.954909-148.293818 147.00606z m451.087515-286.611394a377.731879 377.731879 0 0 1-143.840969 108.48194 236.885333 236.885333 0 0 1 80.849454 178.129454c0 131.289212-107.457939 238.095515-239.538424 238.095515S268.412121 540.609939 268.412121 409.320727a236.637091 236.637091 0 0 1 26.996364-109.63006 241.012364 241.012364 0 0 1 59.888485-73.557334 377.778424 377.778424 0 0 1-136.967758-109.59903 396.706909 396.706909 0 1 0 592.104727 6.206061z"  horiz-adv-x="1024" />

    
    <glyph glyph-name="sanjiao" unicode="&#58925;" d="M510.991515 79.220364L999.175758 619.830303H22.807273l488.184242-540.609939z"  horiz-adv-x="1024" />

    
    <glyph glyph-name="gerengongzuotai" unicode="&#58892;" d="M940.450909 749.505939v-570.321454H82.602667V749.490424h857.863757zM13.963636 179.2a68.732121 68.732121 0 0 1 68.670061-68.670061h857.817212A68.608 68.608 0 0 1 1009.105455 179.2V749.459394a68.732121 68.732121 0 0 1-68.654546 68.670061H82.633697A68.623515 68.623515 0 0 1 13.963636 749.459394z m817.058909-229.220848a34.304 34.304 0 0 1 34.319516 34.304v1.551515a34.319515 34.319515 0 0 1-34.319516 34.319515H192.046545a34.319515 34.319515 0 0 1-34.319515-34.319515v-1.551515a34.304 34.304 0 0 1 34.319515-34.304zM476.423758 19.393939h68.623515v91.120485h-67.025455z m0 0"  horiz-adv-x="1024" />

    
    <glyph glyph-name="gaofenyingxiangbuliangdizhi" unicode="&#58893;" d="M934.012121 784.663273H89.6A55.233939 55.233939 0 0 1 34.133333 729.196606v-690.284606a55.233939 55.233939 0 0 1 55.466667-55.466667h440.630303v64.713697H280.669091v674.909091h462.242909v-305.120969h61.641697v61.641696H927.806061v-33.900606h61.626181V729.196606A55.233939 55.233939 0 0 1 934.012121 784.663273zM95.759515 476.501333h123.267879v-184.89406H95.759515z m0-428.342303V229.965576h123.267879v-181.806546z m123.267879 489.984H95.759515V719.949576h123.267879z m585.526303 0V719.949576H927.806061v-181.806546z m0 0M447.069091 562.796606c-9.231515 6.206061-18.478545 6.206061-27.725576 3.10303-9.309091-6.206061-15.406545-15.406545-15.406545-24.653575v-252.726303a27.601455 27.601455 0 0 1 27.725575-27.725576 23.458909 23.458909 0 0 1 15.406546 6.20606L638.138182 393.309091l6.20606 6.206061c9.309091 12.412121 6.206061 30.828606-6.20606 40.075636z m18.494061-209.563151v123.267878l107.861333-61.626181zM773.725091 189.905455H699.733333v-67.785697h-80.089212v-61.641697H699.733333v-77.032728h73.960728v67.785697h215.660606v61.641697h-215.660606z m0 0M832.279273 353.233455v-67.801213h-212.557576v-61.626181h212.557576V155.927273h70.873212v67.801212h77.048242v61.703757h-77.048242v67.801213z m0 0"  horiz-adv-x="1024" />

    
    <glyph glyph-name="tucengguanli" unicode="&#58894;" d="M998.974061 232.758303a57.592242 57.592242 0 0 1-25.941334 25.941333l-66.311757 33.202425L973.032727 325.042424a58.166303 58.166303 0 0 1-0.108606 103.951515l-66.311757 33.202425 66.311757 33.217939a58.135273 58.135273 0 0 1 0 103.951515L561.074424 805.531152a112.407273 112.407273 0 0 1-99.421091 0L49.927758 599.427879a58.197333 58.197333 0 0 1-25.925819-77.994667 57.561212 57.561212 0 0 1 25.925819-25.941333l66.311757-33.21794L49.927758 428.993939a58.181818 58.181818 0 0 1-25.925819-77.994666A57.561212 57.561212 0 0 1 49.927758 325.042424l66.311757-33.217939-66.311757-33.202424A58.212848 58.212848 0 0 1 24.001939 180.751515a57.561212 57.561212 0 0 1 25.925819-25.941333L461.79297-51.355152a112.376242 112.376242 0 0 1 99.405575 0l411.834182 206.103273a58.197333 58.197333 0 0 1 25.941334 78.010182zM67.630545 204.629333a5.725091 5.725091 0 0 0 2.52897 2.49794l102.260364 51.2 289.062788-144.585697a113.260606 113.260606 0 0 1 100.165818 0L850.695758 258.327273l102.120727-51.2a5.66303 5.66303 0 0 0 2.56-7.493818 6.314667 6.314667 0 0 0-2.52897-2.575516L537.894788-10.519273a59.454061 59.454061 0 0 0-52.751515 0L70.128485 197.15103a5.585455 5.585455 0 0 0-2.49794 7.478303z m887.74594 338.230303a5.725091 5.725091 0 0 0-2.52897-2.575515L537.894788 332.675879a59.454061 59.454061 0 0 0-52.751515 0L70.159515 540.330667a5.507879 5.507879 0 0 0-2.792727 3.211636 5.445818 5.445818 0 0 0 0.294788 4.251152 5.647515 5.647515 0 0 0 2.528969 2.575515L485.112242 758.054788a59.314424 59.314424 0 0 0 52.751516 0l415.014787-207.685818a5.461333 5.461333 0 0 0 2.792728-3.211637 5.523394 5.523394 0 0 0-0.294788-4.251151z m-470.264243-381.719272L70.128485 368.810667a5.507879 5.507879 0 0 0-2.792727 3.211636 5.445818 5.445818 0 0 0 0.294787 4.251152 5.849212 5.849212 0 0 0 2.52897 2.59103l102.260364 51.122424 289.062788-144.601212a113.260606 113.260606 0 0 1 100.165818 0l289.047273 144.585697 102.275878-51.2 0.791273-0.387879h0.884364c1.954909 0 6.485333-0.449939 6.485333-4.499394a5.771636 5.771636 0 0 0-2.187636-4.654545 3.397818 3.397818 0 0 0-3.196122-0.372364l-1.551515 0.496485-416.302545-208.213333a59.407515 59.407515 0 0 0-52.782546 0z"  horiz-adv-x="1024" />

    
    <glyph glyph-name="xiangmuguanli" unicode="&#58895;" d="M974.553212 663.908848H469.938424l-52.829091 123.128243a32.581818 32.581818 0 0 1-29.75806 19.393939H49.446788A32.038788 32.038788 0 0 1 17.066667 774.050909v-779.993212a32.038788 32.038788 0 0 1 32.380121-32.380121h925.106424A32.038788 32.038788 0 0 1 1006.933333-5.942303V631.528727a32.038788 32.038788 0 0 1-32.380121 32.380121zM81.842424 599.133091h860.315152v-572.695273H81.842424z m0 64.775757V741.655273h284.144485l33.326546-77.746425zM239.662545 441.576727A47.414303 47.414303 0 1 1 287.030303 394.162424a47.476364 47.476364 0 0 1-47.367758 47.414303zM762.585212 426.542545H383.224242a32.380121 32.380121 0 0 1 0-64.760242h379.36097a32.380121 32.380121 0 0 1 0 64.760242zM239.662545 269.513697A47.414303 47.414303 0 1 1 287.030303 222.099394a47.476364 47.476364 0 0 1-47.367758 47.414303zM762.585212 254.479515H383.224242a32.380121 32.380121 0 0 1 0-64.760242h379.36097a32.380121 32.380121 0 0 1 0 64.760242z"  horiz-adv-x="1024" />

    
    <glyph glyph-name="wurenjibuliangdizhi" unicode="&#58896;" d="M358.772364 119.078788A123.283394 123.283394 0 1 0 256.729212 221.090909c13.249939 14.227394 25.320727 27.927273 36.041697 41.068606a172.016485 172.016485 0 1 1 107.054546-107.132121c-13.125818-10.689939-26.887758-22.729697-41.084122-35.964121zM736.969697 268.412121c10.519273-13.234424 22.419394-27.042909 35.483151-41.301333a123.283394 123.283394 0 1 0-102.4-102.4c-14.258424 13.048242-28.051394 24.932848-41.316848 35.452121A171.969939 171.969939 0 1 1 736.969697 268.412121z m-64.186182 368.996849a123.298909 123.298909 0 1 0 102.275879-102.244849c-13.591273-14.723879-25.444848-28.470303-35.684849-41.223757a172.032 172.032 0 1 1-107.737212 107.690666c12.412121 10.038303 26.14303 21.860848 41.177212 35.77794zM285.323636 506.259394q-16.632242 19.750788-36.662303 40.820364a123.267879 123.267879 0 1 0 101.500122 101.453575c13.963636-13.28097 27.632485-25.506909 40.804848-36.662303a172.016485 172.016485 0 1 1-105.642667-105.611636z m231.889455-76.024242a50.238061 50.238061 0 1 1 35.576242-14.708364 50.253576 50.253576 0 0 1-35.576242 14.708364z m0 0M757.604848 86.822788c2.870303-3.10303 9.867636-10.984727 11.341576-12.412121l0.713697-0.698182a7.664485 7.664485 0 0 1 1.287758-1.163637c17.066667-15.39103 41.735758-16.570182 56.118303-2.156606 13.482667 13.498182 13.327515 36.026182 0.54303 52.891152a150.279758 150.279758 0 0 1-10.860606 10.860606c-1.411879 1.194667-2.544485 2.249697-3.10303 2.684121C774.206061 173.242182 645.833697 297.937455 648.362667 370.998303c0.108606 3.10303 0 15.856485 0 19.549091-0.356848 73.293576 126.262303 196.235636 165.267394 232.385939 0.48097 0.434424 1.675636 1.551515 3.10303 2.699637a153.243152 153.243152 0 0 1 10.860606 10.860606c12.737939 16.86497 12.939636 39.39297-0.558545 52.891151-14.36703 14.36703-39.005091 13.234424-56.118304-2.156606a7.555879 7.555879 0 0 1-1.272242-1.163636c-0.248242-0.248242-0.48097-0.465455-0.729212-0.682667-1.458424-1.473939-8.471273-9.402182-11.326061-12.412121C719.251394 631.745939 605.525333 516.359758 533.721212 510.913939c-5.66303-0.434424-25.025939-0.356848-29.75806-0.155151-73.603879 2.885818-193.861818 126.712242-229.469091 165.205333-0.449939 0.496485-1.551515 1.691152-2.699637 3.103031a146.788848 146.788848 0 0 1-10.860606 10.860606c-16.880485 12.753455-39.408485 12.939636-52.891151-0.543031-14.382545-14.382545-13.265455-39.005091 2.156606-56.118303a7.400727 7.400727 0 0 1 1.148121-1.272242l0.698182-0.713697c1.458424-1.473939 9.386667-8.471273 12.412121-11.326061 40.029091-37.438061 150.49697-146.292364 161.357576-218.360242 1.148121-7.757576 1.070545-39.424-0.99297-49.245091-15.406545-71.928242-121.37503-176.252121-160.426667-212.712727-3.10303-2.870303-10.984727-9.867636-12.412121-11.326061l-0.682667-0.729212a7.555879 7.555879 0 0 1-1.163636-1.272243c-15.406545-17.066667-16.570182-41.751273-2.156606-56.118303 13.498182-13.498182 36.026182-13.34303 52.891152-0.54303a149.860848 149.860848 0 0 1 10.860606 10.860606c1.210182 1.427394 2.249697 2.56 2.699636 3.103031 34.816 37.593212 150.217697 156.532364 224.162909 164.832969a332.241455 332.241455 0 0 0 36.429576 0.139637c71.974788-6.780121 184.490667-121.018182 222.642424-161.807516zM572.416 324.840727a77.575758 77.575758 0 1 0 23.07103 55.187394 78.056727 78.056727 0 0 0-23.07103-55.187394z m0 0"  horiz-adv-x="1024" />

    
    <glyph glyph-name="renyuanzuzhi" unicode="&#58897;" d="M362.930424 364.016485v3.459879l-0.093091 0.108606a29.696 29.696 0 0 1-29.773575 26.918788c-82.369939 0-149.379879 69.988848-149.379879 156.020363s67.009939 156.020364 149.379879 156.020364a29.292606 29.292606 0 1 1 0 58.569697c-115.293091 0-209.097697-96.271515-209.097697-214.590061a217.910303 217.910303 0 0 1 28.640969-108.140606 214.605576 214.605576 0 0 1 64.496485-70.097454c-127.689697-49.648485-212.557576-175.057455-212.557576-316.074667a29.618424 29.618424 0 0 1 29.866667-29.292606 29.602909 29.602909 0 0 1 29.851152 29.292606c0 154.127515 120.630303 279.536485 268.877575 279.536485a29.649455 29.649455 0 0 1 29.789091 28.268606zM935.796364 221.090909a408.234667 408.234667 0 0 1-194.49794 135.447273c74.084848 45.211152 119.466667 124.38497 119.466667 209.935515 0 136.704-113.896727 247.932121-253.889939 247.932121s-253.889939-111.228121-253.88994-247.932121c0-86.745212 46.297212-166.555152 121.762909-211.549091a407.598545 407.598545 0 0 1-190.448485-135.959273c-52.751515-68.57697-80.678788-150.171152-80.678788-235.954424a29.851152 29.851152 0 0 1 59.702304 0c0 184.630303 153.196606 334.956606 341.53503 335.127273a20.076606 20.076606 0 0 1 4.763151 0.310303 27.834182 27.834182 0 0 1 6.981819-0.325818c188.555636-0.217212 341.891879-150.49697 341.891878-335.127273a29.882182 29.882182 0 0 1 59.748849 0c0.093091 86.807273-28.377212 169.146182-82.447515 238.095515z m-134.702546 345.382788c0-104.401455-87.102061-189.284848-194.172121-189.284849S412.70303 462.072242 412.70303 566.473697s87.117576 189.284848 194.203152 189.284848 194.187636-84.867879 194.187636-189.284848z"  horiz-adv-x="1024" />

    
    <glyph glyph-name="duoyuandizhiBIM" unicode="&#58890;" d="M270.81697 598.512485H74.022788a485.779394 485.779394 0 0 1-47.786667-174.250667h219.492849a853.240242 853.240242 0 0 0 25.088 174.250667zM329.386667 564.363636a795.539394 795.539394 0 0 1-18.618182-140.101818h152.731151V598.512485h-125.408969q-4.701091-16.663273-8.704-34.148849zM380.990061 707.025455q-7.276606-13.513697-13.870546-28.113455h96.380121V803.715879a149.767758 149.767758 0 0 1-13.963636-9.759031c-24.638061-19.362909-48.345212-49.431273-68.545939-86.931393zM446.557091 868.414061A488.556606 488.556606 0 0 1 123.485091 678.912h173.133576c36.181333 91.958303 88.855273 160.116364 149.938424 189.502061zM245.72897 343.846788H26.236121a485.624242 485.624242 0 0 1 47.786667-174.250667h196.794182a853.240242 853.240242 0 0 0-25.088 174.250667zM329.386667 203.729455q4.002909-17.470061 8.704-34.133334h125.408969V343.846788H310.768485a795.927273 795.927273 0 0 1 18.618182-140.117333zM296.618667 89.212121H123.485091a488.556606 488.556606 0 0 1 323.072-189.517576c-61.083152 29.385697-113.757091 97.543758-149.938424 189.517576zM380.990061 61.083152c20.169697-37.500121 43.907879-67.568485 68.576969-86.884849a149.767758 149.767758 0 0 1 13.963637-9.75903V89.212121h-96.411152q6.609455-14.584242 13.870546-28.128969zM563.510303 870.446545v-117.915151C745.177212 728.048485 885.263515 572.416 885.263515 384S745.177212 40.060121 563.510303 15.639273v-117.915152c246.535758 24.979394 438.908121 233.192727 438.908121 486.275879S810.046061 845.405091 563.510303 870.446545zM719.530667 178.036364A291.29697 291.29697 0 0 1 563.510303 671.154424v-91.539394a201.805576 201.805576 0 0 0 0-390.981818v-91.539394a290.133333 290.133333 0 0 1 156.020364 81.082182zM634.84897 384a121.576727 121.576727 0 0 1-71.369697 110.638545v-221.21503a121.576727 121.576727 0 0 1 71.369697 110.62303z"  horiz-adv-x="1024" />

    
    <glyph glyph-name="flaticon-users-vue" unicode="&#58923;" d="M413.056 862.208c88.96 0 179.84-75.648 209.536-174.208 26.24-87.168-5.76-174.592-87.424-238.976-72.448-57.088-150.912-61.952-232.064-14.208-151.424 89.088-147.072 300.544 9.728 395.776 29.44 17.92 61.312 27.648 100.224 31.616 1.024-2.432-0.896 2.432 0 0z m-86.784-866.944c-102.4 2.816-142.592 8.448-247.936 26.752l-2.688 0.384C6.144 37.24800000000005 3.072 42.36800000000005 24.32 108.03200000000004 38.656 152.32000000000005 52.352 196.86400000000003 68.096 240.64c25.088 69.632 78.464 105.856 149.632 109.44 82.944 4.224 166.272 1.664 249.472 1.024 28.672-0.256 33.664-10.112 21.376-36.352-3.072-6.656-6.528-13.056-10.368-19.328-48.64-78.208-64.384-161.408-41.856-251.904 9.216-37.12 2.048-44.032-35.968-44.8M991.872 200.832h-24.832c-11.392 0-23.424 8.832-26.752 19.712l-14.208 34.56c-5.376 9.984-3.2 24.704 4.864 32.768l17.536 17.536c8.064 8.064 8.064 21.248 0 29.184l-29.184 29.184c-8.064 8.064-21.12 8.064-29.184 0l-17.536-17.536c-7.936-8.064-22.784-10.24-32.768-4.864l-34.56 14.208c-10.752 3.328-19.712 15.36-19.712 26.752V407.04c0 11.392-9.344 20.608-20.608 20.608h-41.216c-11.392 0-20.608-9.344-20.608-20.608v-24.704c0-11.392-8.832-23.424-19.712-26.752l-34.56-14.208c-9.984-5.376-24.704-3.2-32.768 4.864l-17.664 17.536c-8.064 8.064-21.12 8.064-29.184 0l-29.184-29.184c-8.064-8.064-8.064-21.12 0-29.184l17.536-17.536c8.064-8.064 10.24-22.784 4.864-32.768l-14.208-34.56c-3.328-10.88-15.36-19.712-26.752-19.712h-24.704c-11.392 0-20.608-9.216-20.608-20.608v-41.216c0-11.392 9.344-20.608 20.608-20.608h24.704c11.392 0 23.424-8.832 26.752-19.712l14.208-34.56c5.376-9.984 3.2-24.832-4.864-32.768l-17.536-17.536c-7.936-8.064-7.936-21.12 0-29.184l29.184-29.184c8.064-8.064 21.12-8.064 29.184 0l17.536 17.536c7.936 7.936 22.784 10.24 32.768 4.736l34.56-14.208c10.88-3.328 19.712-15.36 19.712-26.752v-24.704c0-11.264 9.216-20.608 20.608-20.608h41.216c11.264 0 20.608 9.344 20.608 20.608v24.704c0 11.392 8.96 23.424 19.712 26.752l34.56 14.208c9.984 5.376 24.832 3.2 32.768-4.736l17.536-17.536c8.064-8.064 21.248-8.064 29.184 0l29.184 29.184c8.064 8.064 8.064 21.12 0 29.184l-17.536 17.536c-7.936 8.064-10.24 22.784-4.864 32.768l14.208 34.56c3.328 10.88 15.488 19.712 26.752 19.712h24.832c11.392 0 20.608 9.344 20.608 20.608v41.344c0.128 11.136-9.088 20.48-20.48 20.48zM744.192 56.32000000000005c-56.96 0-103.168 46.208-103.168 103.168 0 56.96 46.208 103.168 103.168 103.168 56.96 0 103.168-46.208 103.168-103.168 0-56.96-46.08-103.168-103.168-103.168z"  horiz-adv-x="1024" />

    
    <glyph glyph-name="flaticon-clipboard-vue" unicode="&#58880;" d="M514.50559893-100.03529279999998c-44.5517504 0-90.28671573 13.50218453-143.92869866 42.49094827-47.01969173 25.4107392-94.61570987 59.73816-145.00712747 96.0783552-4.5451168 3.27676267-9.1131552 6.57208213-13.70739093 9.87940693-77.83021333 56.0182368-133.80260693 107.71839467-166.3606624 153.656384l-0.72149867 1.01512c-10.63801813 14.90152107-7.76730347 41.6220928-6.73144427 48.94077867l0.34492267 405.29474666c-0.525024 4.78416107-1.79883627 23.69267627 8.29560213 40.19655894 16.703632 27.2707008 70.5944832 71.34872853 131.8706048 97.9175776 60.25881813 26.15406933 151.32924907 65.68261333 322.81135467 65.68261333 91.58017387 0 175.6004352-17.2395712 229.9584608-31.70339093 67.79690133-18.03747733 115.371088-38.285296 132.79403627-47.407184 5.45763307-2.85106773 11.04297493-5.71959893 16.64905493-8.5979552 36.52575467-18.758976 71.02781973-36.4766368 86.3997888-56.4221024 17.47206613-22.6720992 14.9626464-55.578352 14.35684907-61.40492054l0-362.45560106c0-5.94117973 0.00873173-11.38462293 0.01637333-16.37835734 0.06112533-40.0197312 0.07858987-52.09638187-4.8245472-61.94850133-4.62479787-9.2288576-16.87172693-33.66158933-82.42663253-83.22017173-21.3895552-16.14040427-45.1848352-24.32139627-70.73638187-24.32139627-36.90233173 0-65.18924373 17.2919648-70.17206293 20.53925653l-186.84206827 95.09925654c-9.02801707-12.2447456-28.84031573-33.74672853-69.4178176-59.13345387-48.62423573-30.44267733-146.67607147-51.70234133-150.82714667-52.5941184l-9.28015893-1.9898528-30.84435947 64.67731733 17.48298134 1.32838827c0.287072 0.0229216 30.54637227 2.52142613 74.92675306 17.09549013 61.51734827 20.2434528 98.46006613 43.73419627 119.77867307 76.16672747 18.60070507 28.31420053 22.42323093 89.619792 22.32608533 110.85325973l-0.05566826 12.0722848 62.82499733 0-0.42242027-12.42484693c-0.05021013-1.47356053-1.2508896-36.348928-3.54527893-59.67703467-1.51613013-15.24753493-5.50347733-31.31480747-8.35563627-41.44308266 22.00408533-10.11299413 78.44583467-36.15354453 130.69066454-61.1287648 15.06197547-7.2084416 27.20957547-13.26314027 37.92727466-18.60616214 32.74143253-16.3183232 44.9927264-22.42323093 61.45513174-22.42323093 1.4440896 0 2.9722272 0.04693547 4.53965866 0.14189867 25.0352544 1.48338453 65.84416 39.89857173 87.78602774 65.90310186L913.5338912 672.30274133c0 1.77045653 0 3.73957013-0.0960544 4.74268267-1.70714773 1.66239467-7.40491627 5.2524256-13.92897067 9.36420693l-2.9078272 1.83267307c-31.83000747 20.0928224-150.27920107 86.83094187-338.09818453 102.00534507-23.23532693 1.87633387-46.46301333 2.82705387-69.03796693 2.82705386-161.75987733 0-268.60396053-48.357904-317.89402774-77.18402986-47.932208-28.0074816-63.72550613-48.47142187-67.6408128-54.48355094l0-424.9280352c4.7263104-6.51641387 15.65358293-21.452864 20.8547072-27.51411093 5.67157227-6.62229227 70.00942507-70.04435413 169.1822592-138.56712 107.83628053-74.52288747 169.99107947-103.55531307 221.68468907-103.5520384 17.7405824 0 35.6339776 3.14687147 58.01463893 10.2035904 71.9938208 22.65572587 164.29986027 106.33652267 165.22329174 107.1780896l9.26487786 8.45059947 42.13292694-50.35648854-7.175696-7.76075413c-0.79463147-0.85903147-8.59577173-9.057488-37.52886827-32.10834667l-2.10882987-1.678768c-30.52781653-24.31484693-102.01735147-81.25869867-191.3304256-97.42966506C539.78535573-98.89792212999998 527.11928107-100.03529279999998 514.50559893-100.03529279999998zM203.22185707 150.50171839999996l5.4216128 8.90139947c0.23795307 0.38967467 24.34759253 40.45852587 40.93443093 99.22850133 16.67852693 58.98173227 17.18826987 185.16875733 17.19154453 186.43711147l0.15717974 258.12530453 12.0526368-0.0436608c0.01418987 0 1.4004288-0.00436587 4.05502186-0.00436587 19.7217024 0 124.8248 0.29689493 257.52496534 6.15402667 97.0607296 4.2896992 233.0409312 16.3095904 234.40315626 16.43074987l9.250688 0.82082773 22.88822187-63.9962048-15.9341056-1.00747947c-1.31856427-0.08295573-116.505184-7.3470656-190.44847147-11.25254826l0-62.81408214 199.31275947 0 0-61.70945706-199.31275947 0 0-56.42755947 160.87792427 0 0-230.17567467-64.81594133 0L696.78072 410.12023147 442.23889707 410.12023147l0-170.95053227-64.86506027 0L377.3738368 469.34428267 535.8765984 469.34428267l0 56.42755946L343.76900693 525.77184213l0 61.70945707L535.8765984 587.4812992l0 59.9400928c-67.09286613-2.37734507-169.62650987-4.907504-204.07509013-5.73488107l0-143.22138986c0-114.20752107-3.00933867-188.64308693-18.88231894-254.81907094-15.8609728-66.06573973-48.65698133-121.95408533-50.04540373-124.3008672l-7.14731627-12.07992533L203.22185707 150.50171839999996z"  horiz-adv-x="1024" />

    
    <glyph glyph-name="flaticon-list-vue" unicode="&#59009;" d="M182.20145778 573.32280889h143.92547555v-70.47168h359.78922667v70.47168h143.92547555v-70.47168h143.92661333V749.47697778h-251.85848888v35.23697778c0 68.67057778-55.70104889 105.68248889-107.95804445 105.68248888h-215.93884444c-70.10986667 0-107.95804445-54.44721778-107.95804445-105.68248888v-35.23697778H38.27598222V502.85226666h143.92547556v70.47168zM362.01813333 784.71395556s0 35.21080889 35.99473778 35.21080888h215.94112s35.99473778 0 35.99473777-35.21080888v-35.23697778H362.01813333v35.23697778z m323.89802667-325.75943112v8.71082667h-359.78808889v-105.73368888H182.20032v105.73368888h-107.95690667v-352.36181333H444.06328888a295.64700445 295.64700445 0 0 0-4.86172444 53.45507555c-0.00113778 146.27271111 106.82595555 267.57233778 246.71345778 290.19591111z m143.92661333-12.46321778c40.82119111-14.19946667 77.54296889-37.13820445 107.93301333-66.58275555v87.75793778h-107.93301333v-21.17404445zM290.13333333 397.14247111V538.0608H218.16888888v-140.91832889h71.96444445z m443.08024889 65.61678222c20.79630222 0 41.08288-2.17315555 60.66062222-6.27939555v81.57980445h-71.96330666v-75.53706667c3.75239111 0.14108445 7.51616 0.23665778 11.30268444 0.23665777z m250.18254222-255.14211555h-24.69205333c-11.30154667 0-23.28348445 8.84849778-26.65016889 19.62666666l-14.17329778 34.45418667c-5.35210667 9.94417778-3.15960889 24.63971555 4.80256 32.65308445l17.51381334 17.48764444c8.03953778 8.01223111 8.03953778 21.11601778 0 29.10321778l-29.10435556 29.07591111c-7.98606222 7.9872-21.06368 7.9872-29.10208 0l-17.51495111-17.48764445c-7.96103111-8.01336889-22.6816-10.17969778-32.65308445-4.82872888l-34.40298666 14.1459911c-10.75427555 3.34165333-19.62780445 15.34862222-19.62780445 26.6752v24.66588445c0 11.30154667-9.29223111 20.56647111-20.56874667 20.56647112h-41.10904888c-11.32771555 0-20.59491555-9.26492445-20.59491556-20.56647112v-24.66588445c0-11.32771555-8.79843555-23.33354667-19.62894222-26.6752l-34.42915556-14.1459911c-9.96920889-5.35096889-24.63857778-3.18350222-32.62691555 4.82872888l-17.53884445 17.48764445c-8.01336889 7.9872-21.08984889 7.9872-29.07818666 0l-29.07704889-29.07591111c-7.9872-7.9872-7.9872-21.09098667 0-29.10321778l17.46147555-17.48764444c8.0384-8.01336889 10.20586667-22.70890667 4.82872889-32.65308445l-14.14712889-34.45304888c-3.34165333-10.80547555-15.32131555-19.65511111-26.67633778-19.65511112l-24.66702222 0.02616889c-11.30154667 0-20.56760889-9.23989333-20.56760888-20.56760889v-41.10791111c0-11.32885333 9.26606222-20.59491555 20.56760888-20.59491556h24.66702222c11.35502222-0.02616889 23.30851555-8.84849778 26.624-19.62780444l14.19946667-34.42688c5.35096889-9.99651555 3.18236445-24.71708445-4.82872889-32.70428444l-17.48764444-17.46147556c-7.96330667-8.01336889-7.96330667-21.08984889 0-29.10208l29.10208-29.10208c7.9872-7.9872 21.06481778-7.9872 29.07818666 0l17.51381334 17.51267556c7.96216889 7.96103111 22.65656889 10.15352889 32.60188444 4.75022222l34.48035556-14.14599112c10.83164445-3.36782222 19.62894222-15.34862222 19.62894222-26.6752v-24.61354666c0-11.27537778 9.23989333-20.54144 20.59377778-20.54144h41.11132444c11.27651555 0 20.56874667 9.26606222 20.56874667 20.54144V-55.637333340000055c0 11.32771555 8.87466667 23.30965333 19.62780445 26.6752l34.45532444 14.14599112c9.97034667 5.40444445 24.69205333 3.21080889 32.70542222-4.75022222l17.41027556-17.51267556c8.0384-7.9872 21.11715555-7.9872 29.10321778 0l29.10435555 29.10208c8.0384 8.01223111 8.0384 21.08871111 0 29.10208l-17.51495111 17.46147556c-7.96216889 7.98606222-10.15466667 22.70776889-4.80256 32.70428444l14.17329778 34.42688c3.36782222 10.78044445 15.40096 19.60163555 26.65016888 19.60163556h24.69205334c11.30268445 0 20.54257778 9.26606222 20.54257778 20.56760888v41.16138667c0 11.32885333-9.24103111 20.56874667-20.54371556 20.56874667z m-246.68842666-143.89475555c-56.77283555 0-102.81642667 46.01514667-102.81642667 102.78570666s46.04359111 102.81187555 102.81642667 102.81187555c56.79786667 0 102.81528889-46.04245333 102.81528888-102.81187555s-46.01628445-102.78570667-102.81528888-102.78570666z"  horiz-adv-x="1024" />

    
    <glyph glyph-name="flaticon-interface-2-vue" unicode="&#58924;" d="M938.66666656 650.6666662499999v-480a53.33333344 53.33333344 0 0 0-53.33333344-53.3333325h-106.66666687V499.84000031a106.66666688 106.66666688 0 0 1-31.2533325 75.41333344l-97.49333344 97.4933325A106.66666688 106.66666688 0 0 1 574.50666688 703.99999969H298.66666625V810.66666656a53.33333344 53.33333344 0 0 0 53.33333344 53.33333344h373.33333406v-106.66666688a106.66666688 106.66666688 0 0 1 106.66666594-106.66666687h106.66666687z m0 53.33333344h-106.66666687a53.33333344 53.33333344 0 0 0-53.33333344 53.33333344V864l160.00000031-160.00000031zM512 650.6666662499999v-106.66666594a106.66666688 106.66666688 0 0 1 106.66666688-106.66666687h106.66666687v-480a53.33333344 53.33333344 0 0 0-53.33333344-53.33333344H138.66666688a53.33333344 53.33333344 0 0 0-53.33333344 53.33333344V597.3333337500001a53.33333344 53.33333344 0 0 0 53.33333344 53.3333325h373.33333312z m-240-480a26.66666625 26.66666625 0 1 1 0-53.3333325h266.66666625a26.66666625 26.66666625 0 1 1 0 53.3333325h-266.66666625z m0 160.00000031a26.66666625 26.66666625 0 1 1 0-53.33333344h266.66666625a26.66666625 26.66666625 0 1 1 0 53.33333344h-266.66666625z m0 160.00000031a26.66666625 26.66666625 0 0 1 0-53.33333343h106.66666688a26.66666625 26.66666625 0 0 1 0 53.33333344h-106.66666688zM725.33333375 490.66666688h-106.66666688a53.33333344 53.33333344 0 0 0-53.33333343 53.33333343V650.6666662499999l160.00000031-159.99999937z"  horiz-adv-x="1024" />

    
    <glyph glyph-name="flaticon-diagram-vue" unicode="&#58891;" d="M328.45874517 574.80457443H207.37896334v-550.82603406h121.07978183v550.82603406z m260.04037632-161.27519516H467.41124779v-389.04920519h121.0878737V413.52937927z m261.01936925 388.06211925H728.43870777v-778.09841038h121.07978297v778.09841038z m120.57814926-819.79063296l-867.91509333 0.49354183V848.7369637c0 22.82432739-18.36626147 41.18249927-41.19059001 41.18249926s-41.18249927-18.36626147-41.18249813-41.18249926v-951.29953963H970.10473074a42.15340259 42.15340259 0 0 1 42.18576555 42.17767481 42.16149333 42.16149333 0 0 1-42.19385629 42.18576668z"  horiz-adv-x="1024" />

    
    <glyph glyph-name="flaticon-layers-vue" unicode="&#59111;" d="M885.33333312 864H138.66666688C80 864 32 816 32 757.33333312v-746.66666624c0-58.66666688 48-106.66666688 106.66666688-106.66666688h746.66666624c58.66666688 0 106.66666688 48 106.66666688 106.66666688V757.33333312c0 58.66666688-48 106.66666688-106.66666688 106.66666688zM368 117.33333374999995c0-42.66666656-21.33333375-64.00000031-64.00000031-64.00000031h-53.33333344L234.66666687 117.33333374999995c16.00000031 0 31.99999969-5.33333344 48.00000001-5.33333344s21.33333375 10.66666687 21.33333281 21.33333281V277.33333312c-26.66666625-10.66666687-48-21.33333375-74.66666625-26.66666625l-16.00000031 63.99999938c31.99999969 5.33333344 58.66666688 16.00000031 90.66666656 26.66666719V469.33333312H224V528h85.33333312V640.00000031h58.66666688v-112.00000031h64.00000031v-58.66666688H368v-111.99999937c21.33333375 10.66666687 42.66666656 26.66666625 64.00000031 37.33333312v-58.66666687l-64.00000031-31.99999969V117.33333374999995z m410.66666625 42.66666656c-31.99999969 31.99999969-64.00000031 53.33333344-96 74.66666625v-186.66666656h-58.66666594V405.33333375H522.66666687v-58.66666688c-5.33333344-122.66666625-31.99999969-223.99999969-85.33333312-298.66666687l-42.6666675 48c42.66666656 64.00000031 69.33333375 144 69.33333375 250.66666687V592.00000031c112.00000031 0 208.00000031 16.00000031 293.33333344 48l26.66666625-53.33333344c-79.99999969-21.33333375-165.33333375-37.33333312-261.33333281-42.66666656v-85.33333406h277.33333312v-53.3333325h-117.33333375v-101.33333344c48-26.66666625 90.66666656-53.33333344 128.00000063-90.66666656l-32.00000063-53.33333344z"  horiz-adv-x="1024" />

    
    <glyph glyph-name="la-home-vue" unicode="&#59340;" d="M641.969231-116.18461500000001v165.415384c0 39.384615-7.876923 47.261538-47.261539 47.261539h-165.415384c-39.384615 0-47.261538-7.876923-47.261539-47.261539v-161.476923c-11.815385 0-19.692308-3.938462-27.569231-3.938461H200.861538c-59.076923 0-74.830769 15.753846-74.830769 74.830769v330.830769c0 11.815385 3.938462 23.630769 11.815385 31.507692 98.461538 94.523077 200.861538 185.107692 303.261538 279.63077 39.384615 35.446154 86.646154 39.384615 129.969231 0 102.4-94.523077 204.8-189.046154 303.261539-283.569231 7.876923-7.876923 11.815385-19.692308 11.815384-27.569231V-49.23076900000001c0-35.446154-19.692308-63.015385-51.2-63.015385-59.076923-7.876923-122.092308-3.938462-192.984615-3.938461zM500.184615 888.123077c47.261538 0 74.830769-15.753846 98.461539-39.384615 90.584615-86.646154 177.230769-173.292308 267.815384-259.938462l122.092308-122.092308 11.815385-11.815384c23.630769-27.569231 27.569231-55.138462 7.876923-74.83077-19.692308-23.630769-55.138462-27.569231-82.707692-11.815384-7.876923 3.938462-11.815385 11.815385-19.692308 15.753846-102.4 98.461538-204.8 192.984615-307.2 291.446154-74.830769 70.892308-102.4 70.892308-181.169231 0-94.523077-94.523077-196.923077-189.046154-299.323077-283.569231-15.753846-11.815385-35.446154-23.630769-55.138461-27.569231-27.569231-3.938462-47.261538 7.876923-59.076923 31.507693-7.876923 23.630769-3.938462 47.261538 11.815384 66.953846l31.507692 31.507692c126.030769 118.153846 252.061538 232.369231 374.153847 350.523077 27.569231 23.630769 59.076923 43.323077 78.76923 43.323077z"  horiz-adv-x="1024" />

    
    <glyph glyph-name="flaticon-exclamation-vue" unicode="&#58881;" d="M910.71778816 738.70348629h-38.83614891s-90.61767851 2.58907705-181.23535815 38.83614777c-93.20675555 38.83614777-155.34459221 82.85044963-155.34459221 82.85044964l-23.30168889 18.12353593-23.30168889-15.53445888s-62.13783666-44.01430073-155.34459221-82.85044964c-90.61767851-38.83614777-181.23535815-38.83614777-181.23535815-38.83614777H113.28221184v-409.07409408c0-204.53704704 258.90765483-422.01947705 398.71778816-422.01947705s398.71778816 217.48243001 398.71778816 422.01947705V738.70348629z m-113.91936853-181.23535815L509.41092295 267.49155555000004c-7.76723001-7.76723001-18.12353593-10.35630592-28.47984185-10.35630592-7.76723001 0-18.12353593 2.58907705-23.30168889 7.76722888l-194.18073998 155.34459335c-15.53445888 12.94538297-20.71261184 38.83614777-5.17815296 54.37060665 12.94538297 15.53445888 38.83614777 20.71261184 54.37060665 5.1781541l168.28997518-134.63198038 264.08580779 264.08580665c15.53445888 15.53445888 38.83614777 15.53445888 54.37060778 0s12.94538297-36.24707186-2.58907704-51.78153074z"  horiz-adv-x="1024" />

    
    <glyph glyph-name="flaticon-network-vue" unicode="&#58988;" d="M251.455625-96l91.3921875 137.1515625H159.9996875z m-91.4559375 182.848125h182.848125V544.0003125000001H159.9996875z m91.4559375 640.0003125c-50.559375 0-91.4559375-44.09625-91.4559375-98.4965625v-38.6559375h182.848125v38.6559375c0 54.4003125-40.959375 98.4965625-91.3921875 98.4965625M479.999375 864v-91.5196875h137.1525v-91.3921875H480.0003125v-137.0878125h137.1515625v-91.520625H480.0003125V315.328125h137.1515625v-91.3284375H480.0003125v-137.1515625h137.1515625v-91.4559375H480.0003125V-96h365.6953125V864z"  horiz-adv-x="1024" />

    
    <glyph glyph-name="flaticon-light-vue" unicode="&#59035;" d="M319.37270518-7.468373329999963L255.16360691-71.67747161c-53.8527921-55.92405333-144.98828642-55.92405333-198.84107852 0-53.8527921 55.92405333-53.8527921 144.98828642 0 200.91233976l62.13783704 62.13783703 12.4275674-12.4275674 198.84107853 198.84107852 35.21144099-35.21144099c-20.71261235-64.20909827-4.14252247-140.84576395 39.35396346-194.69855606l20.71261234-24.8551348-122.20441284-115.99062914c6.2137837-6.2137837 16.57008987-14.49882864 16.57008987-14.49882864z m-211.26864593-10.35630617c24.85513482-24.85513482 64.20909827-24.85513482 86.99297186 0 24.85513482 24.85513482 24.85513482 64.20909827 0 86.99297185-24.85513482 24.85513482-64.20909827 24.85513482-86.99297186 0s-24.85513482-62.13783703 0-86.99297185zM903.46837333-61.32116542999995c-64.20909827-64.20909827-163.62963753-64.20909827-229.90999703 0l-4.14252247 4.14252246c10.35630617 10.35630617 10.35630617 28.99765728 0 45.56774716l-194.69855605 194.69855606c-10.35630617 10.35630617-28.99765728 10.35630617-45.56774717 0-45.56774717 49.71026963-49.71026963 120.13315161-24.8551348 176.05720493L159.88559013 603.55369086l-20.71261235-20.71261234c-4.14252247-4.14252247-10.35630617-4.14252247-14.49882864-4.14252247-4.14252247 0-10.35630617 4.14252247-14.49882864 10.35630617l-89.06423309 144.98828642c-4.14252247 4.14252247-4.14252247 20.71261235 4.14252246 24.85513483l60.06657582 60.06657578c4.14252247 4.14252247 14.49882864 4.14252247 24.85513481 0l149.13080889-89.06423308c4.14252247-4.14252247 10.35630617-10.35630617 10.35630616-14.49882864 0-4.14252247 0-10.35630617-4.14252246-14.49882864l-20.71261234-20.71261236 244.40882567-244.40882567c53.8527921 28.99765728 124.27567408 20.71261235 173.98594371-24.85513481-10.35630617-10.35630617-10.35630617-28.99765728 0-45.56774716l194.69855604-194.69855606c10.35630617-10.35630617 28.99765728-10.35630617 45.56774716 0l4.14252248-4.14252246c55.92405333-62.13783703 55.92405333-167.77216-4.14252248-227.8387358zM646.63198025 257.65306468999995c-16.57008987 16.57008987-37.28270222 16.57008987-53.8527921 0s-16.57008987-37.28270222 0-53.8527921l169.84342124-169.84342123c16.57008987-12.42756741 37.28270222-12.42756741 53.85279209 0 16.57008987 16.57008987 16.57008987 37.28270222 0 53.85279211l-169.84342123 169.84342122zM942.8223368 489.63432297c-60.06657581-60.06657581-144.98828642-80.77918815-219.55369088-60.0665758l-14.49882864-10.35630619-24.85513481 20.71261235c-53.8527921 45.56774717-124.27567408 60.06657581-194.69855605 39.35396347L460.21846914 508.27567408l10.35630617 10.35630617 53.8527921 55.92405333 28.99765728 28.99765728c-14.49882864 74.56540445 4.14252247 149.13080889 64.20909828 209.19738469 49.71026963 49.71026963 120.13315161 74.56540445 188.48477234 64.20909828l-124.27567407-124.27567408c-14.49882864-14.49882864-14.49882864-39.35396347 0-49.71026962l149.13080889-149.13080889c14.49882864-14.49882864 39.35396347-14.49882864 49.71026962 0l124.27567408 124.27567407c8.28504494-68.35162075-12.42756741-138.77450272-62.13783703-188.48477234z"  horiz-adv-x="1024" />

    
    <glyph glyph-name="guanlizhejiashicang" unicode="&#58922;" d="M529.312 371.968c-6.592-8.896-13.024-16.192-16.256-19.872a2.88 2.88 0 0 0-1.824-0.736 2.4 2.4 0 0 0-1.696 0.736 262.848 262.848 0 0 0-16.448 19.84c-28.448-2.432-49.504-10.336-49.504-19.68 0-11.52 30.368-20.672 67.616-20.672 37.408 0 67.648 9.12 67.648 20.672 0.032 9.344-20.96 17.28-49.536 19.712z m-18.08 28.8a25.28 25.28 0 0 1 0 50.496 25.28 25.28 0 0 1-25.344-25.248 25.376 25.376 0 0 1 25.344-25.248z m0 84.128a100.96 100.96 0 1 1 0.032-201.824 100.96 100.96 0 0 1-0.032 201.824z m0-154.88c-40.096 0-72.576 9.92-72.576 22.208 0 10.112 22.656 18.592 53.312 21.184l-1.28 1.632c-9.6 13.376-20.928 33.024-20.928 50.528a41.44 41.44 0 0 0 82.944 0c0-17.472-11.36-37.12-20.96-50.432-0.448-0.64-0.864-1.088-1.344-1.696 30.752-2.592 53.536-11.04 53.536-21.184 0.032-12.32-32.608-22.24-72.704-22.24zM377.152 126.88c3.776 9.44-3.904 18.432-12.64 18.432-1.28-0.544-2.816-0.416-3.968-1.056a13.856 13.856 0 0 1-8-8.672c-2.656-8.608 5.024-19.168 13.632-17.696a13.344 13.344 0 0 1 10.976 8.992z m348.96 343.232v-2.56h6.592v-3.648h-6.592v-2.656h6.592v-5.216H736v5.216h6.336v2.656H736v3.648h6.336v2.56h-5.504l7.008 11.872h-3.488l-3.936-7.328c-0.992-1.952-1.728-3.232-1.888-3.872h-0.192a157.856 157.856 0 0 1-5.824 11.2h-3.616l6.848-11.872h-5.632zM444.896 698.24a51.936 51.936 0 0 1-34.56 13.088h-0.16a51.2 51.2 0 0 1-35.424-14.016l35.424-35.552 34.72 36.48z m-34.688-91.232c27.392 0 50.208 21.312 52.032 48.64v-0.128c0.224 1.152 0.224 2.336 0.224 3.36l-52.096-1.472a2.88 2.88 0 0 0-0.576 0.064l0.128-0.064-0.32 0.064h0.16c-0.256 0.032-0.576 0.096-0.704 0.352L372.096 694.72c-8.736-9.28-14.08-21.696-14.08-35.424v-0.16c0-28.768 23.36-52.128 52.192-52.128z m56.512-447.2c7.456 1.184 7.296 12.608-0.832 12.48-2.432-1.12-4.224-1.536-5.088-4.16-1.216-4 2.144-8.8 5.92-8.32z m187.424 22.432c0.16 0.448-2.08 0.448-2.976 0.448-1.088 0.352-1.632 0.352-2.688 0.672-0.32-0.576-0.768-0.96-1.12-1.536 2.368 0.064 4.416 0.064 6.528 0.032a2.656 2.656 0 0 1 0.256 0.384z m17.408 458.08a19.008 19.008 0 0 1-18.944-18.912c0-10.336 8.512-18.848 18.944-18.848 10.24 0 18.752 8.544 18.752 18.848a18.944 18.944 0 0 1-18.752 18.912z m0-28.32a9.312 9.312 0 0 0-9.408 9.408 9.344 9.344 0 1 0 18.72 0 9.376 9.376 0 0 0-9.312-9.408z m-70.72 18.88c23.488 0 42.336 18.752 42.336 42.4s-18.848 42.528-42.336 42.528c-23.744 0-42.592-18.88-42.592-42.528s18.848-42.4 42.592-42.4z m0 75.36c17.888 0 32.896-15.04 32.896-32.96 0-17.888-15.04-32.96-32.896-32.96a33.472 33.472 0 0 0-33.184 32.96c0 17.92 15.104 32.96 33.184 32.96z m0-56.576a23.424 23.424 0 0 1 23.488 23.616 23.424 23.424 0 0 1-23.488 23.616 23.456 23.456 0 0 1-23.744-23.616c0-13.152 10.432-23.616 23.744-23.616z m0 37.792a14.176 14.176 0 1 0-0.16-28.32 14.176 14.176 0 0 0 0.16 28.32z m-89.664 71.456C304.192 758.912 136.32 591.008 136.32 384.064c0-207.008 167.872-374.848 374.848-374.848 206.944 0 374.848 167.84 374.848 374.848 0 206.944-167.936 374.848-374.848 374.848z m308.32-217.664c0 1.984 1.888 3.744 3.84 3.744h9.984c1.984 0 3.328-1.824 3.328-3.744v-22.4l-6.688-0.32-10.432 8.096v14.624z m-27.264 21.408c0 1.984 2.112 2.72 3.808 2.72h10.08c1.984 0 3.168-0.736 3.168-2.72v-28.096l-10.272 7.872-6.784-10.048v30.272z m-27.392-43.488c0 2.08 2.336 3.008 4.32 3.008h9.984c2.016 0 3.968-1.024 3.968-3.008v-2.304l-12.416-17.888-5.856 2.464v17.728z m-26.176 12.672c0 1.952 1.504 2.848 3.36 2.848h10.048c1.888 0 3.616-0.928 3.616-2.848v-24.992l-9.44 4.704-7.616-4.704v24.992z m-137.824 193.312c28.16 0 51.776-23.616 51.776-51.872s-23.616-51.872-51.776-51.872c-28.416 0-51.872 23.616-51.872 51.872s23.488 51.872 51.872 51.872z m-232.672-23.84a59.008 59.008 0 0 0 42.016 17.472h0.16c12.512 0 24.064-3.904 33.312-10.272 16.448-11.104 26.24-29.6 26.016-49.28v-4.128a59.744 59.744 0 0 0-59.488-55.552 59.68 59.68 0 0 0-59.616 59.584c0.032 15.904 6.336 30.88 17.6 42.176zM217.536 228.096H201.28v33.792h16.256v-33.792z m27.008 0h-16.288v49.792h16.288v-49.792z m30.144 0h-16.064v62.304h16.064v-62.304z m29.344 0h-16.288v80.416h16.288v-80.416zM302.208 323.2l-12.096 11.104-37.792-38.368-15.744 13.792-38.944-39.104-6.624 6.176 45.28 45.408 15.584-13.984 31.648 32.256-11.264 10.4 36.288 7.968-6.336-35.648z m18.016 110.88H201.12a2.88 2.88 0 0 0-2.976 2.88v119.232c0 1.568 1.28 2.88 2.976 2.88 1.504 0 2.816-1.344 2.816-2.88v-116.224h116.288c1.664 0 3.04-1.312 3.04-3.008 0.032-1.6-1.344-2.88-3.04-2.88z m-3.968 94.016l-12.736-37.76a7.808 7.808 0 1 0-13.44-5.408c0 0.256 0 0.512 0.16 0.736l-16.448 14.56a7.04 7.04 0 0 0-3.264-0.704l-9.792-26.368a8.128 8.128 0 0 0 1.952-5.216 7.744 7.744 0 1 0-15.488 0 10.56 10.56 0 0 0 0.288 2.304l-4.096 3.392a8.192 8.192 0 0 0-4.192-1.28c-0.672 0-1.28 0.192-1.824 0.352l-16.192-16.576c0.608-1.152 0.96-2.496 0.96-3.872a7.872 7.872 0 0 0-7.84-7.904 7.872 7.872 0 0 0-7.744 7.904 7.776 7.776 0 0 0 9.952 7.456l16.064 16.576a7.68 7.68 0 0 0 6.624 11.744c4.512 0 8-3.424 8-7.776 0-0.64-0.224-1.312-0.384-1.888l4.48-3.68a6.464 6.464 0 0 0 3.648 1.024c0.16 0 0.32-0.096 0.544-0.096l9.568 26.112a7.552 7.552 0 0 0-2.368 5.536c0 4.288 3.52 7.904 7.84 7.904a7.904 7.904 0 0 0 7.296-10.688l15.232-13.536a7.136 7.136 0 0 0 4.832 1.856h0.384l12.384 36.832a7.872 7.872 0 0 0-3.104 6.176c0 4.32 3.392 7.808 7.744 7.808 4.32 0 8-3.488 8-7.808a7.904 7.904 0 0 0-7.04-7.712z m48.768-443.264c-2.496 3.808-4.992 7.392-7.424 11.232-4.896 6.752-9.28 13.76-13.792 20.96-3.648 6.176-6.144 15.296-2.816 24.096 1.44 3.776 3.648 6.4 5.792 9.44a22.944 22.944 0 0 0 11.264 7.296c1.536 0.384 3.808 0.192 5.344 0.672 19.04 0.32 31.488-15.616 25.344-35.104-2.816-8.672-7.168-13.984-11.936-20.416-2.304-3.456-4.512-7.072-6.784-10.752-1.504-2.496-3.104-5.056-4.64-7.68l-0.352 0.256z m116 16.864c-12.48-2.144-24.704-4.192-37.12-6.272-8.672-1.536-17.408-3.168-26.24-4.672-16.032-3.552-32.48-6.176-48.384-9.856l0.16 0.384c4.64 7.808 9.28 15.616 14.144 23.552 1.472 0.416 3.136 0.544 4.64 0.672 3.264 0.704 6.624 0.832 10.016 1.312l8.672 0.416c14.368 0.96 28.672 1.952 42.88 2.752l-0.16 0.128c-6.016 4.672-11.776 9.312-17.728 13.984-4.64 3.296-9.952 5.792-14.752 8.992-4.512 3.392-8.96 6.944-13.472 10.4 9.984 0.768 19.936 1.856 29.824 2.816 3.488 0.48 6.976 0 10.336 0.672 4.256 0.16 8.608 0.352 12.864 0.608 1.216 0 2.368 0.416 3.52 0.416a22.4 22.4 0 0 0 3.776-4.352c-4.768-0.704-9.44-1.088-14.208-1.696-9.12-1.664-18.24-1.664-26.976-3.456l0.128-0.16c1.856-1.824 4.64-2.944 6.976-4.256 4.256-2.56 8.736-4.832 13.088-7.328 2.304-1.504 4.416-2.976 6.624-4.608 6.656-4.192 13.088-8.352 19.552-12.672 3.968-2.624 7.744-5.12 11.776-7.616v-0.16z m-25.568 68.928c0.704 1.504 1.696 2.816 2.656 4.224a12.928 12.928 0 0 0 5.344 3.2c0.448 0 1.184 0 1.6 0.352 8.448 0 14.912-6.624 12.064-15.328-1.28-4.672-3.776-7.488-6.08-10.848a131.84 131.84 0 0 1-4.64-7.296c-1.344 2.016-2.656 3.872-3.776 5.664-1.984 3.008-3.808 5.984-5.888 8.896a13.696 13.696 0 0 0-1.28 11.136z m-106.016 213.44c0 89.312 72.448 161.536 161.728 161.536s161.728-72.32 161.728-161.632c0-89.248-72.448-161.536-161.728-161.536s-161.728 72.288-161.728 161.632z m276.032-232.128c-2.432-1.728-4.928-3.168-7.424-4.672-29.152-16.928-54.304-13.12-63.808-13.664 0 0 66.208 1.856 93.152 48.192-0.992 0-1.856 0-3.2-0.096-2.144 0-4.096-0.128-6.016 0-0.544 0-1.024 0.32-0.544 0.672 0.352 0.672 0.928 0.96 1.504 1.312l0.128 0.128c0.672 0.608 11.808 11.296 12.096 11.296 0.832 0 10.432-11.392 11.776-12.416 0.32-0.32 0.64-0.832 0-0.832h-9.216c-2.048-4.992-7.136-11.04-10.56-14.88a91.968 91.968 0 0 0-17.888-15.04z m6.304-7.808v-46.912c0-1.28-0.32-1.824-0.8-1.824h-4.48c-0.288 0-0.672 0.544-0.672 1.824v46.912c0 1.44 0.384 1.792 0.672 1.792h4.608c0.352 0 0.672-0.352 0.672-1.792z m-33.024-12.8v-33.984c0-1.12-0.288-1.984-0.608-1.984h-4.64c-0.384 0-0.672 0.832-0.672 1.984v33.984c0 0.96 0.32 2.016 0.672 2.016h4.64c0.32 0.032 0.608-1.024 0.608-2.016z m-30.944-11.936v-22.752c0-0.608-0.448-1.248-0.8-1.248h-4.544c-0.448 0-0.8 0.672-0.8 1.248v22.752c0 0.704 0.384 1.312 0.8 1.312h4.544c0.352 0 0.8-0.576 0.8-1.312z m91.808 49.536c0 2.208 0.288 2.208 0.672 2.208h4.672c0.288 0 0.608 0 0.608-2.208v-71.424c0-2.08-0.32-2.08-0.608-2.08h-4.672c-0.416 0-0.672 0-0.672 2.08v71.424z m-106.976-81.984v4.48c0 0.448-0.256 0.832 1.6 0.832h99.456c3.584 0 20.352-0.416 21.376-0.416 0.16-2.944 0.16-2.944 0.16-4.896H552.64z m118.912 506.24a27.744 27.744 0 0 0-28.384 28.224c0 16 12.256 28.256 28.384 28.256 15.904 0 28.128-12.224 28.128-28.256a27.68 27.68 0 0 0-28.128-28.224z m9.312 75.392a18.816 18.816 0 0 0 0 37.664 18.816 18.816 0 0 0 0-37.664z m28.992-198.688V470.4c0 6.528 2.656 12.512 6.752 16.896a26.72 26.72 0 0 0 6.464 5.056 24.736 24.736 0 1 0-13.216-22.464z m45.216 18.944l0.672-0.32v-0.64c-0.256 0.32-0.416 0.672-0.672 0.96z m18.176-158.752v-57.952h-57.952a58.016 58.016 0 0 0 57.952 57.952z m2.4-116.544a54.208 54.208 0 0 0-54.176 50.688h57.792v57.888a54.304 54.304 0 0 0 50.688-54.176c0-30.208-24.352-54.4-54.304-54.4z m67.744 244.928h-83.904c1.056 2.432 1.312 5.216 1.696 7.968h82.208v-7.968z m-78.56 13.664v11.2l9.408-4.64 8.832 12.064v-18.624h-18.24z m27.392 0v33.888l9.568 14.336 7.488-5.536v-42.656h-17.056z m27.264 0v34.72l6.656-4.896 10.464 0.416v-30.208h-17.12z m8.352 36.192l-26.208 19.904-27.968-42.08-27.008 13.76-3.008-1.824c-1.92 0.832-4.16 0.896-6.24 1.312l8.864 5.568 25.888-13.184 28.352 42.944 28.96-22.304 13.952 0.64v-4l-15.584-0.736zM462.464 660.832a52.672 52.672 0 0 1-14.976 34.912L414.688 661.12l47.776-0.288z m322.272-344.864v-57.184h-57.216a49.152 49.152 0 0 1 48.128-39.808c26.976 0 48.864 22.08 48.864 48.928a49.12 49.12 0 0 1-39.776 48.064zM511.168 893.184a25.184 25.184 0 0 1-25.184-25.184v-386.528a99.84 99.84 0 0 0 25.28 3.584c8.704 0 17.024-1.44 25.088-3.52V868a25.184 25.184 0 0 1-25.184 25.184z m-25.184-606.496v-386.624c0-13.92 11.264-25.248 25.184-25.248s25.184 11.328 25.184 25.248V286.656c-8.064-2.08-16.384-3.52-25.088-3.52-8.8 0-17.184 1.472-25.28 3.552zM151.232 744.128a25.152 25.152 0 0 1 0-35.68l273.344-273.376a100.928 100.928 0 0 0 35.68 35.712L186.912 744.128a25.216 25.216 0 0 1-35.68 0z m720-684.352l-273.312 273.344a100.672 100.672 0 0 0-35.68-35.712l273.408-273.44c4.8-4.992 11.264-7.296 17.728-7.296s12.96 2.496 17.888 7.296a25.248 25.248 0 0 1-0.032 35.808zM424.448 333.056l-273.376-273.28a25.216 25.216 0 0 1 17.888-43.104 25.056 25.056 0 0 1 17.728 7.296l273.44 273.376a100.928 100.928 0 0 0-35.68 35.712zM871.232 744.032a25.056 25.056 0 0 1-35.584 0l-273.472-273.344a100.48 100.48 0 0 0 35.648-35.68l273.408 273.344a25.056 25.056 0 0 1 0 35.68zM413.824 409.216H27.168a25.12 25.12 0 0 1-25.024-25.152c0-13.952 11.264-25.216 25.024-25.216h386.688a101.024 101.024 0 0 0-3.552 25.248c0 8.704 1.44 17.056 3.52 25.12z m581.184 0H608.64c2.08-8.064 3.52-16.416 3.52-25.12 0-8.768-1.472-17.12-3.552-25.248h386.4a25.152 25.152 0 1 1 0 50.368z"  horiz-adv-x="1024" />

    
    <glyph glyph-name="adduser" unicode="&#59310;" d="M678.3 253.6c24.2 13 51.9 20.4 81.4 20.4h0.1c3 0 4.4 3.6 2.2 5.6-30.8 27.6-65.6 49.7-103.7 65.8-0.4 0.2-0.8 0.3-1.2 0.5C719.2 391 759.6 464.3 759.6 547c0 137-110.8 248-247.5 248S264.7 684 264.7 547c0-82.7 40.4-156 102.6-201.1-0.4-0.2-0.8-0.3-1.2-0.5-44.7-18.9-84.8-46-119.3-80.6-34.5-34.5-61.5-74.7-80.4-119.5C147.9 101.5 138 55 137 7.2c-0.1-4.5 3.5-8.2 8-8.2h59.9c4.3 0 7.9 3.5 8 7.8 2 77.2 32.9 149.5 87.6 204.3C357 267.8 432.2 299 512.2 299c56.7 0 111.1-15.7 158-45.1 2.5-1.5 5.5-1.7 8.1-0.3zM512.2 375c-45.8 0-88.9 17.9-121.4 50.4-32.4 32.5-50.3 75.7-50.3 121.6 0 45.9 17.9 89.1 50.3 121.6S466.3 719 512.2 719s88.9-17.9 121.4-50.4c32.4-32.5 50.3-75.7 50.3-121.6 0-45.9-17.9-89.1-50.3-121.6C601.1 392.9 558 375 512.2 375zM880 137h-84v84c0 4.4-3.6 8-8 8h-56c-4.4 0-8-3.6-8-8v-84h-84c-4.4 0-8-3.6-8-8v-56c0-4.4 3.6-8 8-8h84v-84c0-4.4 3.6-8 8-8h56c4.4 0 8 3.6 8 8v84h84c4.4 0 8 3.6 8 8v56c0 4.4-3.6 8-8 8z"  horiz-adv-x="1024" />

    
    <glyph glyph-name="deleteteam" unicode="&#59311;" d="M888 112H664c-4.4 0-8-3.6-8-8v-48c0-4.4 3.6-8 8-8h224c4.4 0 8 3.6 8 8v48c0 4.4-3.6 8-8 8zM373.5 385.6c-0.9 8.7-1.4 17.5-1.4 26.4 0 15.9 1.5 31.4 4.3 46.5 0.7 3.6-1.2 7.3-4.5 8.8-13.6 6.1-26.1 14.5-36.9 25.1-25.8 25.2-39.7 59.3-38.7 95.4 0.9 32.1 13.8 62.6 36.3 85.6 24.7 25.3 57.9 39.1 93.2 38.7 31.9-0.3 62.7-12.6 86-34.4 7.9-7.4 14.7-15.6 20.4-24.4 2-3.1 5.9-4.4 9.3-3.2 17.6 6.1 36.2 10.4 55.3 12.4 5.6 0.6 8.8 6.6 6.3 11.6-32.5 64.3-98.9 108.7-175.7 109.9-110.9 1.7-203.3-89.2-203.3-199.9 0-62.8 28.9-118.8 74.2-155.5-31.8-14.7-61.1-35-86.5-60.4-54.8-54.7-85.8-126.9-87.8-204-0.1-4.5 3.5-8.2 8-8.2h56.1c4.3 0 7.9 3.4 8 7.7 1.9 58 25.4 112.3 66.7 153.5 29.4 29.4 65.4 49.8 104.7 59.7 3.9 1 6.5 4.7 6 8.7zM824 412c0 109.4-87.9 198.3-196.9 200C516.3 613.7 424 522.8 424 412c0-62.8 29-118.8 74.2-155.5-31.7-14.7-60.9-34.9-86.4-60.4C357 141.4 326 69.2 324-7.8c-0.1-4.5 3.5-8.2 8-8.2h56c4.3 0 7.9 3.4 8 7.7 1.9 58 25.4 112.3 66.7 153.5C505.8 188.3 563 212 624 212c110.4 0 200 89.5 200 200z m-109.5-90.5C690.3 297.3 658.2 284 624 284s-66.3 13.3-90.5 37.5C509 346 495.7 378.6 496 413.3c0.3 32.8 13.4 64.5 36.3 88 24 24.6 56.1 38.3 90.4 38.7 33.9 0.3 66.8-12.9 91-36.6 24.8-24.3 38.4-56.8 38.4-91.4-0.1-34.2-13.4-66.3-37.6-90.5z"  horiz-adv-x="1024" />

    
    <glyph glyph-name="deleteuser" unicode="&#59312;" d="M678.3 240.6c24.2 13 51.9 20.4 81.4 20.4h0.1c3 0 4.4 3.6 2.2 5.6-30.8 27.6-65.6 49.7-103.7 65.8-0.4 0.2-0.8 0.3-1.2 0.5C719.2 378 759.6 451.3 759.6 534c0 137-110.8 248-247.5 248S264.7 671 264.7 534c0-82.7 40.4-156 102.6-201.1-0.4-0.2-0.8-0.3-1.2-0.5-44.7-18.9-84.8-46-119.3-80.6-34.5-34.5-61.5-74.7-80.4-119.5C147.9 88.5 138 42 137-5.8c-0.1-4.5 3.5-8.2 8-8.2h59.9c4.3 0 7.9 3.5 8 7.8 2 77.2 32.9 149.5 87.6 204.3C357 254.8 432.2 286 512.2 286c56.7 0 111.1-15.7 158-45.1 2.5-1.5 5.5-1.7 8.1-0.3zM512.2 362c-45.8 0-88.9 17.9-121.4 50.4-32.4 32.5-50.3 75.7-50.3 121.6 0 45.9 17.9 89.1 50.3 121.6S466.3 706 512.2 706s88.9-17.9 121.4-50.4c32.4-32.5 50.3-75.7 50.3-121.6 0-45.9-17.9-89.1-50.3-121.6C601.1 379.9 558 362 512.2 362zM880 124H640c-4.4 0-8-3.6-8-8v-56c0-4.4 3.6-8 8-8h240c4.4 0 8 3.6 8 8v56c0 4.4-3.6 8-8 8z"  horiz-adv-x="1024" />

    
    <glyph glyph-name="addteam" unicode="&#59313;" d="M892 124h-80v80c0 4.4-3.6 8-8 8h-48c-4.4 0-8-3.6-8-8v-80h-80c-4.4 0-8-3.6-8-8v-48c0-4.4 3.6-8 8-8h80v-80c0-4.4 3.6-8 8-8h48c4.4 0 8 3.6 8 8v80h80c4.4 0 8 3.6 8 8v48c0 4.4-3.6 8-8 8zM373.5 397.6c-0.9 8.7-1.4 17.5-1.4 26.4 0 15.9 1.5 31.4 4.3 46.5 0.7 3.6-1.2 7.3-4.5 8.8-13.6 6.1-26.1 14.5-36.9 25.1-25.8 25.2-39.7 59.3-38.7 95.4 0.9 32.1 13.8 62.6 36.3 85.6 24.7 25.3 57.9 39.1 93.2 38.7 31.9-0.3 62.7-12.6 86-34.4 7.9-7.4 14.7-15.6 20.4-24.4 2-3.1 5.9-4.4 9.3-3.2 17.6 6.1 36.2 10.4 55.3 12.4 5.6 0.6 8.8 6.6 6.3 11.6-32.5 64.3-98.9 108.7-175.7 109.9-110.8 1.7-203.2-89.2-203.2-200 0-62.8 28.9-118.8 74.2-155.5-31.8-14.7-61.1-35-86.5-60.4-54.8-54.7-85.8-126.9-87.8-204-0.1-4.5 3.5-8.2 8-8.2h56.1c4.3 0 7.9 3.4 8 7.7 1.9 58 25.4 112.3 66.7 153.5 29.4 29.4 65.4 49.8 104.7 59.7 3.8 1.1 6.4 4.8 5.9 8.8zM824 424c0 109.4-87.9 198.3-196.9 200C516.3 625.7 424 534.8 424 424c0-62.8 29-118.8 74.2-155.5-31.7-14.7-60.9-34.9-86.4-60.4C357 153.4 326 81.2 324 4.2c-0.1-4.5 3.5-8.2 8-8.2h56c4.3 0 7.9 3.4 8 7.7 1.9 58 25.4 112.3 66.7 153.5C505.8 200.3 563 224 624 224c110.4 0 200 89.5 200 200z m-109.5-90.5C690.3 309.3 658.2 296 624 296s-66.3 13.3-90.5 37.5C509 358 495.7 390.6 496 425.3c0.3 32.8 13.4 64.5 36.3 88 24 24.6 56.1 38.3 90.4 38.7 33.9 0.3 66.8-12.9 91-36.6 24.8-24.3 38.4-56.8 38.4-91.4-0.1-34.2-13.4-66.3-37.6-90.5z"  horiz-adv-x="1024" />

    
    <glyph glyph-name="user" unicode="&#59314;" d="M858.5 132.4c-18.9 44.8-46.1 85-80.6 119.5-34.5 34.5-74.7 61.6-119.5 80.6-0.4 0.2-0.8 0.3-1.2 0.5C719.5 378 760 451.3 760 534c0 137-111 248-248 248S264 671 264 534c0-82.7 40.5-156 102.8-201.1-0.4-0.2-0.8-0.3-1.2-0.5-44.8-18.9-85-46-119.5-80.6-34.5-34.5-61.6-74.7-80.6-119.5C146.9 88.5 137 42 136-5.8c-0.1-4.5 3.5-8.2 8-8.2h60c4.4 0 7.9 3.5 8 7.8 2 77.2 33 149.5 87.8 204.3 56.7 56.7 132 87.9 212.2 87.9s155.5-31.2 212.2-87.9C779 143.3 810 71 812-6.2c0.1-4.4 3.6-7.8 8-7.8h60c4.5 0 8.1 3.7 8 8.2-1 47.8-10.9 94.3-29.5 138.2zM512 362c-45.9 0-89.1 17.9-121.6 50.4S340 488.1 340 534c0 45.9 17.9 89.1 50.4 121.6S466.1 706 512 706s89.1-17.9 121.6-50.4S684 579.9 684 534c0-45.9-17.9-89.1-50.4-121.6S557.9 362 512 362z"  horiz-adv-x="1024" />

    
    <glyph glyph-name="unlock" unicode="&#59337;" d="M832 432H332V656c0 30.9 25.1 56 56 56h248c30.9 0 56-25.1 56-56v-68c0-4.4 3.6-8 8-8h56c4.4 0 8 3.6 8 8v68c0 70.7-57.3 128-128 128H388c-70.7 0-128-57.3-128-128v-224h-68c-17.7 0-32-14.3-32-32v-384c0-17.7 14.3-32 32-32h640c17.7 0 32 14.3 32 32V400c0 17.7-14.3 32-32 32z m-40-376H232V360h560v-304zM484 195v-53c0-4.4 3.6-8 8-8h40c4.4 0 8 3.6 8 8v53c12.1 8.7 20 22.9 20 39 0 26.5-21.5 48-48 48s-48-21.5-48-48c0-16.1 7.9-30.3 20-39z"  horiz-adv-x="1024" />

    
    <glyph glyph-name="lock" unicode="&#59338;" d="M832 432h-68V656c0 70.7-57.3 128-128 128H388c-70.7 0-128-57.3-128-128v-224h-68c-17.7 0-32-14.3-32-32v-384c0-17.7 14.3-32 32-32h640c17.7 0 32 14.3 32 32V400c0 17.7-14.3 32-32 32zM332 656c0 30.9 25.1 56 56 56h248c30.9 0 56-25.1 56-56v-224H332V656z m460-600H232V360h560v-304zM484 195v-53c0-4.4 3.6-8 8-8h40c4.4 0 8 3.6 8 8v53c12.1 8.7 20 22.9 20 39 0 26.5-21.5 48-48 48s-48-21.5-48-48c0-16.1 7.9-30.3 20-39z"  horiz-adv-x="1024" />

    
    <glyph glyph-name="hd" unicode="&#60337;" d="M617.984 320l0 128 86.016 0 0-128-86.016 0zM553.984 512l0-256 171.989333 0q18.005333 0 29.994667 11.989333t11.989333 29.994667l0 171.989333q0 18.005333-11.989333 29.994667t-29.994667 11.989333l-171.989333 0zM470.016 256l0 256-64 0 0-105.984-86.016 0 0 105.984-64 0 0-256 64 0 0 86.016 86.016 0 0-86.016 64 0zM809.984 768q34.005333 0 59.989333-25.984t25.984-59.989333l0-596.010667q0-34.005333-25.984-59.989333t-59.989333-25.984l-596.010667 0q-36.010667 0-61.013333 25.984t-25.002667 59.989333l0 596.010667q0 34.005333 25.002667 59.989333t61.013333 25.984l596.010667 0z"  horiz-adv-x="1024" />

    
    <glyph glyph-name="icon_hangzhengjiulang" unicode="&#58939;" d="M1070.976-72.618667h-48.085333V463.232c0 48.085333-41.173333 89.301333-89.216 89.301333h-109.866667c-13.696 0-27.434667-13.738667-27.434667-27.477333s13.738667-27.477333 27.434667-27.477333h109.866667c13.738667 0 27.434667-13.738667 27.434666-27.477334v-535.850666h-205.952V806.698667C755.157333 854.784 713.984 896 665.941333 896H171.648C123.605333 896 82.432 854.784 82.432 806.698667v-879.317334H27.52c-13.738667 0-27.477333-13.738667-27.477333-27.477333s13.738667-27.477333 27.477333-27.477333H1064.064c13.781333 0 27.477333 13.738667 27.477333 27.477333s-6.826667 27.477333-20.565333 27.477333z m-926.762667 0V806.698667c0 13.738667 13.738667 27.477333 27.434667 27.477333h501.162667c13.738667 0 27.434667-13.738667 27.434666-27.477333v-879.317334H144.256zM542.336 628.053333H302.122667c-13.738667 0-27.477333-13.696-27.477334-27.434666s13.738667-27.477333 27.434667-27.477334h240.298667c13.738667 0 27.434667 13.738667 27.434666 27.477334s-13.696 27.477333-27.434666 27.477333zM542.336 415.146667H302.122667c-13.738667 0-27.477333-13.738667-27.477334-27.477334s13.738667-27.477333 27.434667-27.477333h240.298667c13.738667 0 27.434667 13.738667 27.434666 27.477333s-13.696 27.477333-27.434666 27.477334zM542.336 236.501333H302.122667c-13.738667 0-27.477333-13.738667-27.477334-27.477333s6.826667-34.346667 27.434667-34.346667h240.298667c13.738667 0 27.434667 13.738667 27.434666 27.477334s-13.696 34.346667-27.434666 34.346666z"  horiz-adv-x="1109" />

    
    <glyph glyph-name="1" unicode="&#58884;" d="M68.391646 179.3449 210.777541 509.585253 285.198507 388.652973 344.498078 444.46614 442.174702 644.473383 510.782266 581.680245 561.947576 488.650455 614.273315 309.57801 661.951197 351.44249 715.437365 495.630427 795.08845 546.79676 854.977445 458.420967 971.256752 179.3449ZM212.808804 468.010369 137.807622 283.124522 175.310771 294.462754 191.008288 332.833667 226.76363 335.449237 226.76363 389.52483 235.488339 414.812773ZM446.533986 604.935901 365.4339 440.106856 350.607216 375.570004 329.671395 335.449237 376.767016 312.776865 418.630473 337.192951 401.189242 375.570004 442.174702 393.012258 459.616956 468.010369 432.585299 507.258255 459.616956 552.610162ZM791.896758 518.591371l-61.921281-37.499056-43.608194-128.201847 29.653367-31.389918 40.98546 5.230118 16.570397-13.954827 12.211113 53.196573c0 0-29.652344 29.653367-30.524201 32.268938-0.871857 2.614547 28.78151 54.06843 28.78151 54.06843L791.896758 518.591371z"  horiz-adv-x="1024" />

    
    <glyph glyph-name="zelvxingzhengjiufen" unicode="&#58977;" d="M0 523.47832c0.477354 20.056051-1.383324 39.682052 5.496026 58.89664 7.736581 21.612828 21.211449 38.092305 40.840317 49.34812 25.739865 14.757847 51.866773 28.841951 77.818795 43.229956 35.30702 19.575829 70.593973 39.188929 105.913894 58.743256C252.083239 745.88388 274.171988 757.933852 296.168993 770.147242c29.71065 16.493811 59.332424 33.145307 89.055975 49.61475 23.325856 12.925838 46.776427 25.622317 70.112317 38.528088 15.937615 8.814571 31.58423 18.172436 47.713933 26.612864 11.136835 5.82573 22.867137 9.852422 35.815912 10.817165 20.390055 1.519506 38.247122-4.350662 55.457682-14.610197C610.126246 871.690406 626.554116 863.327387 642.65515 854.406738c23.320122-12.920105 46.561403-25.973525 69.894426-38.874993 15.607911-8.631082 31.35487-17.012737 46.957047-25.650988 28.096532-15.557738 56.115657-31.247359 84.193554-46.832334 14.60733-8.110724 29.274867-16.119669 43.916601-24.173053 26.655869-14.661803 53.397747-29.165921 79.943237-44.02698 28.659897-16.047994 57.510449-31.809289 85.533874-48.915204 14.67327-8.95792 23.800343-23.312955 30.857448-39.227634 9.069732-20.451695 5.675213-41.707583 6.632789-63.227233C727.073763 523.47832 363.871602 523.47832 0 523.47832zM545.445447 647.779675c56.359351 0 112.723003 0 169.083788 0 1.338886 0 2.679205-0.065941 4.010924 0.018635 4.995735 0.318236 8.675522 3.500599 9.215949 7.768118 0.368409 2.889929-2.313664 6.624188-4.518381 9.234585-1.698693 2.008328-4.774977 2.844057-7.23199 4.21448-27.044347 15.088985-54.071491 30.213807-81.14164 45.25692-15.091852 8.388822-30.493339 16.245817-45.33863 25.044618C562.022401 755.620189 534.165262 756.672374 505.933981 742.032075c-16.148339-8.374487-31.847994-17.611939-47.764106-26.43511-29.38668-16.295989-58.803463-32.537505-88.137104-48.925238-2.40254-1.341753-4.88679-3.261205-6.272981-5.553366-3.827436-6.327454 1.685792-13.324351 10.309707-13.327218C431.194336 647.771073 488.320608 647.779675 545.445447 647.779675zM32.332515-128.000001c0 20.071819 0 39.709289 0 60.021935 17.438486 0 34.702085 0 52.42297 0 0 19.69911 0 38.733077 0 58.435054 23.067827 0 45.681235 0 68.753362 0 0 20.077553 0 39.494264 0 59.346758 263.480971 0 526.490322 0 789.971292 0 0-19.443948 0-38.857792 0-58.943946 23.83188 0 47.209343 0 71.049824 0 0-19.693376 0-38.727343 0-58.432188 16.945363 0 33.444909 0 50.327198 0 0-20.448829 0-40.221047 0-60.427614C720.919762-128.000001 376.877718-128.000001 32.332515-128.000001zM359.895083 395.683533c-11.750372 0-22.619142 0-34.140154 0 0-99.321244 0-198.374423 0-297.801746-56.740661 0-112.827649 0-169.569744 0 0 98.992972 0 198.046152 0 297.572386-12.412647 0-24.185955 0-36.377842 0-0.197823 1.863545-0.513192 3.309944-0.477354 4.746307 0.339739 14.068335 0.43865 28.152439 1.192669 42.200705 0.960442 17.890037 18.658391 36.190055 37.321083 36.67601 29.91994 0.781256 59.85565 0.971911 89.787058 1.218472 21.402104 0.177754 42.812809 0.2953 64.209179-0.086009 9.352132-0.166285 18.67416-1.353221 26.965504-6.728833 12.925838-8.380221 19.987243-20.401523 20.907548-35.415967C360.564527 424.211549 359.895083 410.262194 359.895083 395.683533zM633.001983 97.737005c-56.64175 0-112.212678 0-168.246626 0 0 99.149224 0 198.071955 0 297.672731-11.579785 0-22.733822 0-34.643312 0 0 11.476573 0.177754 22.298039-0.051606 33.110904-0.215024 10.13482 0.507458 19.96144 5.781292 28.988168 7.521556 12.871366 18.317219 21.327562 33.439174 21.542586 51.908344 0.739685 103.828157 1.432063 155.735068 1.026384 22.061512-0.17202 37.422861-11.347558 43.741715-33.75311 0.349774-1.248576 0.778389-2.540156 0.782689-3.813101 0.054473-15.286807 0.032971-30.572181 0.032971-46.534166-12.087243 0-24.002467 0-36.571364 0C633.001983 296.244743 633.001983 197.185829 633.001983 97.737005zM943.77114 395.91576c0-99.788564 0-198.699828 0-298.009603-55.380273 0-110.317596 0-165.904293 0 0 98.908397 0 197.958709 0 297.679899-12.538794 0-24.454018 0-37.278078 0 1.863545 18.398929-2.352368 36.276064 2.543023 53.883703 3.768663 13.553711 12.752386 22.543167 25.592215 27.181962 6.406296 2.315097 13.565178 3.481964 20.39579 3.524968 47.771274 0.292433 95.543981 0.258029 143.319554 0.08171 12.042805-0.044438 23.64696-2.666303 33.001958-10.883106 8.341516-7.325167 13.84901-16.978333 14.650335-27.83707 1.103793-14.975739 0.276665-30.094827 0.276665-45.622462C968.164951 395.91576 956.391644 395.91576 943.77114 395.91576z"  horiz-adv-x="1091" />

    
    <glyph glyph-name="shebeileibanqiugaoqing" unicode="&#59896;" d="M384 13.632C236.48 55.552 128 191.232 128 352l0 192C128 554.496 127.552 565.184 128.64 576l702.592 0C832.256 565.184 832 554.496 832 544L832 384l64 0L896 544c0 11.968-1.28 23.68-2.432 35.392C931.2 587.392 960 619.2 960 659.2L960 812.8C960 858.752 922.752 896 876.8 896L83.2 896C37.248 896 0 858.752 0 812.8l0-153.6c0-39.808 28.544-71.488 65.856-79.68C64.96 567.744 64 556.032 64 544l0-192c0-196.032 137.536-361.088 320.768-404.48C384.64-49.92 384-47.424 384-44.8L384 13.632zM64 659.2 64 812.8C64 823.36 72.64 832 83.2 832l793.6 0C887.36 832 896 823.36 896 812.8l0-153.6C896 648.64 887.36 640 876.8 640L83.2 640C72.64 640 64 648.64 64 659.2zM478.976 384c7.808 0 15.36-1.216 22.656-3.008C511.168 382.976 521.088 384 531.2 384l75.072 0C577.088 422.656 531.2 448 478.976 448c-88.384 0-160-71.616-160-160 0-52.672 25.792-98.944 65.024-128.128L384 236.8c0 9.024 1.088 17.792 2.688 26.368C384.512 271.168 382.976 279.36 382.976 288 382.976 340.928 426.048 384 478.976 384zM128 768l64 0 0-64-64 0 0 64ZM1024 236.8C1024 282.752 986.752 320 940.8 320L531.2 320C485.248 320 448 282.752 448 236.8l0-281.6C448-90.752 485.248-128 531.2-128l409.6 0c45.952 0 83.2 37.248 83.2 83.2L1024 236.8zM960-44.8c0-10.624-8.576-19.2-19.2-19.2L531.2-64C520.576-64 512-55.424 512-44.8l0 281.6C512 247.424 520.576 256 531.2 256l409.6 0c10.624 0 19.2-8.576 19.2-19.2L960-44.8zM709.12 0l-22.528 0 0 86.528L598.464 86.528 598.464 0 575.936 0l0 192 22.528 0 0-83.392 88.192 0L686.656 192l22.528 0L709.184 0zM754.112 0l0 192 49.728 0c26.432 0 48.384-8.448 65.856-25.408 17.536-16.96 26.24-39.68 26.24-68.16 0-29.76-8.768-53.568-26.24-71.488S829.632 0 802.048 0L754.112 0zM776.64 169.92l0-147.968 25.344 0c22.144 0 39.424 6.656 51.776 19.968 12.416 13.312 18.624 31.936 18.624 55.872 0 23.936-6.4 41.984-19.136 54.016s-29.504 18.112-50.304 18.112L776.64 169.92z"  horiz-adv-x="1024" />

    
    <glyph glyph-name="shebeileiqiangjigaoqing" unicode="&#59922;" d="M940.8 384C951.36 384 960 375.36 960 364.8l0-280.128c0-10.56-8.64-19.2-19.2-19.2L531.2 65.472c-10.56 0-19.2 8.64-19.2 19.2L512 364.8C512 375.36 520.64 384 531.2 384L940.8 384M940.8 448 531.2 448C485.248 448 448 410.752 448 364.8l0-280.128c0-45.952 37.248-83.2 83.2-83.2l409.6 0c45.952 0 83.2 37.248 83.2 83.2L1024 364.8C1024 410.752 986.752 448 940.8 448L940.8 448zM709.12 128l-22.528 0 0 86.528L598.464 214.528 598.464 128 575.936 128 575.936 320l22.528 0 0-83.392 88.192 0L686.656 320l22.528 0L709.184 128zM754.112 128 754.112 320l49.728 0c26.432 0 48.384-8.448 65.856-25.408 17.536-16.96 26.24-39.68 26.24-68.16 0-29.76-8.768-53.568-26.24-71.488S829.632 128 802.048 128L754.112 128zM776.64 297.92l0-147.968 25.344 0c22.144 0 39.424 6.656 51.776 19.968 12.416 13.312 18.624 31.936 18.624 55.872 0 23.936-6.4 41.984-19.136 54.016s-29.504 18.112-50.304 18.112L776.64 297.92zM320 320 320 384l65.92 0c3.072 23.488 11.2 45.376 24 64L320 448 320 576 320 704l640 0 0-193.92c23.488-3.072 45.312-11.136 64-24L1024 768 320 768 254.656 768 0 768l0-62.016L0 448l128 0 0-64 128 0 0-128 128 0L384 320 320 320zM256 448 192 448 192 512 128 512 64 512 64 704l192 0L256 448z"  horiz-adv-x="1024" />

    
    <glyph glyph-name="icon-sanweifenxi" unicode="&#58921;" d="M959.924147 332.94623c1.528819 34.005488-30.899754 46.363957-30.899754 46.363958l-179.289385 75.729775s0.493234 131.515313 0 166.907381c-0.506537 35.669384-32.451086 47.922453-32.451086 47.922452s-141.828192 56.507992-183.931103 77.284178c-21.900799 10.824533-44.807509 0-44.807509 0s-133.394103-59.044768-174.644599-75.729776c-37.694507-15.234983-37.117362-47.921429-37.117362-47.921429v-167.441547s-117.556393-50.821479-166.910451-70.231551c-47.194882-18.563798-45.852304-57.533344-45.852304-57.533344s0.467651-133.647883 0-168.45769c-0.490164-37.588083 33.493835-49.457412 33.493835-49.457411s113.939005-57.57837 168.465876-82.424245c40.290635-18.345834 66.456574-0.506537 66.456575-0.506536l179.01514 88.10564s141.526317-66.648956 174.917821-87.571475c38.632879-24.227798 64.904219-4.116761 64.904219-4.11676s157.786653 79.950913 182.39819 91.180675c26.314319 12.016685 26.314319 41.723264 26.314319 41.723264s-1.601474 142.168953-0.062422 176.174441z m-658.404417-66.465784L137.702734 338.35645l163.816996 71.874981 166.905334-71.088058-166.905334-72.662927z m183.913706-106.641809L327.796186 81.015408V221.672938l157.638273 67.994603v-129.828904h-0.001023z m25.886577 386.379955l-177.345104 75.728752 177.345104 78.307483 184.314843-78.307483-184.314843-75.728752z m28.211529-46.366004l156.081824 67.992557v-114.361631l-156.081824-69.523423V499.852588z m186.256054-233.372142L562.73501 338.35645l156.104337 71.874981 170.021301-71.874981-163.073052-71.876004z m180.054819-111.291712l-154.570401-74.173326V221.672938l154.570401 67.994603v-134.478807z"  horiz-adv-x="1024" />

    
    <glyph glyph-name="kuangshan" unicode="&#59046;" d="M139.1 66H886v41.5H139.1V66z m145.2 368.5l209.1-244h60.7L403.8 366.4l260.9 322 209.8-497.9h53.1L679.3 785 370 405.9l-99.5 116.4-173-331.8h60.6l126.2 244z m590.3-244.2H261.1l0.1 0.1H158l0.1 0.1H97.6V149h829.9v41.5h-53l0.1-0.2zM180.6-17h663.9v41.5H180.6V-17z"  horiz-adv-x="1024" />

    
    <glyph glyph-name="chanpinmoxing-" unicode="&#58883;" d="M505.8 45.4c-11 0-21.9 2.9-31.5 8.4l-237.5 137c-19.4 11.2-31.5 32.1-31.5 54.6v274c0 22.4 12.1 43.4 31.5 54.6l237.5 137c19.1 11.1 43.8 11 63 0l237.5-137c19.4-11.2 31.5-32.1 31.5-54.6v-274c0-22.5-12.1-43.4-31.5-54.6l-237.5-137c-9.6-5.4-20.4-8.4-31.5-8.4z m0 634.4c-4.1 0-8.1-1.1-11.7-3.1l-237.5-137c-7.2-4.2-11.7-11.9-11.7-20.2v-274c0-8.3 4.5-16.1 11.7-20.2l237.5-137c7.1-4.1 16.3-4.1 23.3 0l237.5 137c7.2 4.2 11.7 11.9 11.7 20.2v274c0 8.3-4.5 16.1-11.7 20.2l-237.5 137c-3.5 2-7.5 3.1-11.6 3.1zM506.1 368.8c-10.7 0-21.3 2.7-31 8.2L287.7 482.9c-9.5 5.4-12.9 17.5-7.5 27s17.5 12.9 27 7.5l187.4-105.8c7.1-4 15.6-4 22.7-0.1l193.7 106c9.6 5.3 21.7 1.7 26.9-7.9 5.3-9.6 1.7-21.6-7.9-26.9L536.4 376.6c-9.5-5.2-19.9-7.8-30.3-7.8zM505.8 125.1c-11 0-19.9 8.9-19.8 19.9l0.8 213.3c0.1 23 12.7 44.1 32.9 55.1L711 517.5c9.6 5.2 21.7 1.7 26.9-7.9 5.2-9.6 1.7-21.7-8-26.9L538.6 378.6c-7.5-4.1-12.1-11.9-12.2-20.4l-0.8-213.3c0-10.9-8.9-19.8-19.8-19.8zM505.8 125.1c-10.9 0-19.8 8.8-19.8 19.7l-0.8 213.3c0 8.6-4.7 16.4-12.2 20.5L287.8 482.8c-9.5 5.4-12.9 17.5-7.6 27 5.4 9.5 17.5 13 27 7.6l185.1-104.1c20-10.9 32.6-32 32.6-55l0.8-213.2c0-11-8.9-19.9-19.9-20 0.1 0 0 0 0 0z"  horiz-adv-x="1024" />

    
    <glyph glyph-name="custom-constructi" unicode="&#59027;" d="M778.24 448.853c13.6533-13.6533 34.1333-13.6533 47.7867 0l64.8533 64.8533c13.6533 13.6533 13.6533 34.1333 0 47.7867L727.04 725.333c-3.41333 3.41333-6.82667 3.41333-10.24 3.41333l-105.813 13.6533c-6.82667 0-10.24 0-13.6533-3.41333l-30.72-30.72c-13.6533-13.6533-13.6533-34.1333 0-47.7867l78.5067-78.5067-133.12-116.053-34.1333 27.3067c23.8933 61.44 17.0667 136.533-37.5467 191.147-54.6133 54.6133-129.707 68.2667-194.56 44.3733-3.41333-3.41333-6.82667-13.6533 0-17.0667l102.4-102.4c6.82667-6.82667 6.82667-17.0667 0-23.8933l-68.2667-68.2667c-6.82667-6.82667-17.0667-6.82667-23.8933 0l-102.4 102.4c-3.41333 6.82667-13.6533 3.41333-17.0667-3.41333-23.8933-64.8533-6.82667-139.947 44.3733-194.56 54.6133-54.6133 126.293-61.44 191.147-37.5467l20.48-23.8933-167.253-143.36c-51.2-44.3733-51.2-119.467-6.82667-163.84 47.7867-47.7867 122.88-44.3733 163.84 6.82667l129.707 150.187 109.227-133.12c44.3733-54.6133 122.88-58.0267 170.667-10.24s44.3733 126.293-10.24 170.667l-143.36 119.467 102.4 119.467 37.5467-27.3067Zm-47.7867-283.307c17.0667 0 30.72-13.6533 30.72-30.72s-13.6533-30.72-30.72-30.72-30.72 13.6533-30.72 30.72 13.6533 30.72 30.72 30.72Z"  horiz-adv-x="1024" />

    
    <glyph glyph-name="biaoji" unicode="&#58994;" d="M516.736 488.128c18.496-11.584 41.152-27.072 62.208-42.048 41.664-29.568 201.472-18.176 266.688-23.488C910.784 417.344 960 402.944 960 402.944l-90.88 150.784c0 0 98.496 147.776 86.336 144.704-12.032-3.072-73.408-4.544-113.6 6.784s-132.608 12.096-195.52 12.096c-46.656 0-103.424 40.128-129.536 60.8L516.8 828.736 443.2 828.736l0-784.96 73.536 0L516.736 488.128zM619.904 215.36l0-55.296c105.024-14.08 177.536-44.16 177.536-79.04 0-48.384-139.2-87.616-310.784-87.616s-310.72 39.232-310.72 87.616c0 34.176 69.696 63.744 171.2 78.208l0 55.488C182.272 195.392 64 142.72 64 81.024c0-78.336 189.184-141.76 422.656-141.76s422.656 63.424 422.656 141.76C909.248 143.552 787.968 196.672 619.904 215.36z"  horiz-adv-x="1024" />

    
    <glyph glyph-name="celiangtongzhi" unicode="&#59298;" d="M864.661333 761.685333c-8.362667 8.277333-21.866667 8.256-30.165333-0.085333-8.32-8.362667-8.277333-21.866667 0.085333-30.186667 93.205333-92.629333 144.533333-216 144.533333-347.392 0.021333-131.392-51.306667-254.784-144.533333-347.434667-8.362667-8.298667-8.405333-21.802667-0.085333-30.165333 4.16-4.181333 9.642667-6.293333 15.125333-6.293333 5.44 0 10.88 2.069333 15.04 6.208 101.333333 100.714667 157.141333 234.858667 157.12 377.685333C1021.781333 526.848 965.994667 660.970667 864.661333 761.685333zM496 801.258667c-3.904 0-7.744-1.066667-11.093333-3.114667L187.370667 617.109333 97.664 617.109333c-52.629333 0-95.445333-42.602667-95.445333-94.976l0-276.245333c0-52.373333 42.816-94.997333 95.445333-94.997333l89.728 0 297.536-181.013333c3.328-2.026667 7.168-3.114667 11.093333-3.114667 31.552 0 62.528 31.765333 62.528 64.149333L558.549333 737.109333c0.021333 15.850667-7.317333 32.298667-20.074667 45.077333C526.336 794.304 510.869333 801.258667 496 801.258667zM515.861333 30.890667c0-7.530667-7.978667-17.408-15.466667-20.501333L204.437333 190.442667c-3.328 2.026667-7.168 3.114667-11.093333 3.114667L97.664 193.557333c-29.098667 0-52.778667 23.488-52.778667 52.330667L44.885333 522.133333c0 28.842667 23.68 52.309333 52.778667 52.309333l95.701333 0c3.904 0 7.744 1.066667 11.093333 3.114667l295.872 180.032c2.624-1.109333 5.44-3.050667 7.936-5.546667 5.269333-5.269333 7.594667-11.264 7.594667-14.912L515.861333 30.890667zM695.189333 582.762667c-8.32-8.362667-8.277333-21.866667 0.085333-30.165333 45.376-45.12 70.378667-104.981333 70.378667-168.597333 0-63.616-25.002667-123.498667-70.378667-168.618667-8.362667-8.298667-8.405333-21.802667-0.085333-30.165333 4.16-4.181333 9.642667-6.293333 15.125333-6.293333 5.44 0 10.88 2.069333 15.04 6.208C778.858667 238.293333 808.32 308.928 808.32 384c0 75.050667-29.461333 145.685333-82.965333 198.848C716.992 591.168 703.509333 591.104 695.189333 582.762667z"  horiz-adv-x="1024" />

    
    <glyph glyph-name="chizi" unicode="&#58920;" d="M204.613 175.156l693.927 693.935 275.798-275.836-693.89-693.91-275.836 275.811zM245.562 175.156l234.884-234.863 652.971 652.963-234.877 234.892-65.248-65.248 72.076-72.063-20.474-20.466-72.061 72.063-63.031-63.024 145.659-145.659-20.459-20.466-145.659 145.659-63.018-63.008 72.061-72.078-20.474-20.466-72.063 72.07-63.031-63.031 145.687-145.644-20.474-20.483-145.687 145.651-63.001-63.008 72.055-72.048-20.466-20.476-72.055 72.058-63.031-63.037 145.659-145.644-20.468-20.476-145.659 145.66-63.023-63.018 72.063-72.063-20.468-20.459-72.063 72.05-66.325-66.34z"  horiz-adv-x="1449" />

    
    </font>
</defs>
</svg>
